<svg xmlns="http://www.w3.org/2000/svg" shape-rendering="geometricPrecision" width="1200" height="1200"><path d="M605.175 85.909a32754 32754 0 0 1 58.052-.14l2.502-.004q8.59-.016 17.18-.049 10.117-.038 20.233-.04 4.948 0 9.896-.024c3.459-.016 6.917-.015 10.377-.008l2.989-.028c7.095.043 11.89 1.084 17.44 5.802l2.656 2.77c.71.73.71.73 1.433 1.477a198 198 0 0 1 7.754 8.585c2.716 3.173 5.63 5.812 8.813 8.504 3.469 3.116 6.722 6.432 10 9.746 4.387 4.43 8.778 8.743 13.547 12.766 3.104 2.756 5.98 5.741 8.894 8.695 2.542 2.562 5.116 5.021 7.871 7.351 3.942 3.357 7.55 7.011 11.188 10.688 5.312 5.385 5.312 5.385 10.937 10.437 4.806 4.059 9.135 8.609 13.555 13.076 3.264 3.287 6.535 6.49 10.07 9.487 9.168 7.84 9.168 7.84 9.75 12.5-1.654 3.152-3.793 5.205-6.37 7.637-1.83 1.755-3.48 3.564-5.13 5.488-3.115 3.61-6.322 7.126-9.562 10.625l-1.559 1.683-3.145 3.396a2343 2343 0 0 0-9.937 10.816 1675 1675 0 0 1-5.156 5.617c-3.87 4.23-7.48 8.326-10.453 13.238-9.139-2.056-15.227-10.187-21.559-16.586-3.343-3.306-6.866-6.363-10.441-9.414a891 891 0 0 1-5-4.313l-2.313-1.988C768 232 768 232 768 230l-1.785-.793c-2.333-1.271-3.819-2.61-5.653-4.52l-1.824-1.875L757 221c-2.627-2.686-4.874-4.916-8-7v-2l-1.688-.625c-3.172-1.886-4.99-4.53-7.312-7.375l-4-3-1 104h36c-3.54 7.078-8.615 12.797-14.27 18.277-1.728 1.72-3.325 3.502-4.918 5.348-3.153 3.656-6.405 7.21-9.687 10.75A1313 1313 0 0 0 727 356l-4.375 4.875-2.23 2.484a584 584 0 0 1-5.196 5.657l-1.453 1.567a1918 1918 0 0 1-4.07 4.362c-3.087 3.524-5.865 7.308-8.676 11.055h-47V168H294c.095 47.118.19 94.236.29 142.781a878662 878662 0 0 1 .252 139.17q.087 47.49.188 94.98a213267 213267 0 0 1 .208 111.383l.004 2.74q.038 21.844.09 43.69.053 21.95.081 43.903.018 13.048.055 26.097.024 8.712.028 17.425.004 4.966.022 9.933c.013 3.567.014 7.133.012 10.7l.021 3.116c-.023 7.257-.133 14.62-5.439 20.144l-1.886 2.004L286 838l-1.77 1.777a880 880 0 0 1-3.488 3.453c-2.403 2.441-4.63 5.018-6.867 7.61-3.565 4.107-7.231 8.123-10.875 12.16l-4.5 5-9 10-2.242 2.492a5113 5113 0 0 1-4.578 5.078c-3.38 3.746-6.749 7.495-10.055 11.305-3.546 4.08-7.21 8.046-10.894 12.001-2.127 2.3-3.989 4.51-5.731 7.124h-2V88c75.921-1.168 75.921-1.168 113.609-1.266l10.604-.031q11.312-.034 22.624-.075 26.69-.091 53.38-.168l25.01-.076q52.95-.162 105.899-.301 30.024-.079 60.05-.174" fill="#1a1a1a" stroke="#1a1a1a" stroke-width="0.8"/><path d="M1045.773 52.992c2.413 1.092 4.282 2.207 6.227 4.008v2l1.734.738c2.67 1.487 4.404 3.243 6.516 5.45a167 167 0 0 0 10.547 9.894c7.548 6.57 14.818 13.473 22.14 20.293l1.9 1.766q2.589 2.42 5.163 4.859l2.887 2.71c2.113 2.29 2.113 2.29 2.988 5.54-1.354 5.801-5.343 9.066-9.875 12.75q-1.998 1.004-4 2c-.805 2.05-.805 2.05-1 4h-3l-.187 1.813C1087 133 1087 133 1084.875 134.25c-3.337 2.031-5.285 4.34-7.785 7.305-2.48 2.902-5.062 5.704-7.652 8.507q-1.423 1.552-2.844 3.106a792 792 0 0 1-4.563 4.945c-3.11 3.437-4.928 6.365-6.031 10.887h-4l-.125 1.75c-1.087 2.796-2.53 3.3-5.012 4.805-3.407 2.642-5.835 6.201-8.496 9.566-2.887 3.512-6.047 6.64-9.289 9.82a141 141 0 0 0-5.515 5.746l-1.372 1.512c-1.36 1.865-1.36 1.865-2.023 4.621-1.42 3.865-3.638 6.428-6.418 9.368l-1.41 1.576c-3.14 3.387-6.165 5.331-10.34 7.236-2.207 1.894-2.207 1.894-2.855 4.797-1.289 3.605-2.887 5.636-5.457 8.453l-2.301 2.578c-2.456 2.235-4.343 2.973-7.387 4.172-2.225 1.965-2.225 1.965-4.187 4.313l-2.043 2.3c-1.785 2.408-2.723 4.598-3.77 7.387-1.937 2.313-1.937 2.313-4 4h-3v2.125c-1.366 3.928-3.738 5.237-7.09 7.543-2.682 1.87-3.779 2.872-4.691 6.066-1.52 4.071-3.73 6.442-6.719 9.516l-1.512 1.602c-5.736 6.059-5.736 6.059-8.336 6.98-3.243 1.428-4.787 3.176-7.09 5.856l-2.343 2.71L927 308l-1.844 2.04c-2.888 3.212-4.673 5.853-6.156 9.96-1.437 1.813-1.437 1.813-3 3h-3v2a277 277 0 0 1-4.215 3.441c-2.67 2.332-4.887 5.004-7.176 7.704C900 338 900 338 897.625 340.25c-1.78 1.918-2.259 3.186-2.625 5.75h-3l-.75 2.75c-1.65 4.291-3.647 6.349-7.633 8.59-2.774 1.76-4.539 3.552-6.68 6.035a554 554 0 0 1-11.062 12.25c-3.7 3.991-7.34 8.017-10.887 12.145a236 236 0 0 1-5.195 5.617l-1.762 1.861a508 508 0 0 1-3.501 3.654c-3.31 3.495-5.491 6.688-7.53 11.098-4.386 6.617-9.202 13.53-15 19h-2l-.812 1.875C818 433 818 433 815 435h-3l-1 4-4 1v2c-1.285 1.227-1.285 1.227-3.062 2.625-3.428 2.841-6.301 5.906-9.172 9.3q-1.786 2.096-3.657 4.118c-2.857 3.104-4.931 5.542-6.609 9.457-2.335 5.449-5.843 10.266-11.309 12.805-4.153 2.206-6.812 5.11-9.941 8.57l-1.746 1.855c-3.05 3.321-4.902 6.015-6.504 10.27l-3 1-.812 2.125c-1.606 3.887-4.028 7.085-7.188 9.875h-3l-.105 2.074c-1.31 4.286-4.047 6.66-7.207 9.739l-1.764 1.81-1.725 1.709-1.567 1.554C727 532 727 532 723 532l-.75 1.723c-1.91 3.478-4.661 6.092-7.375 8.96-1.933 2.388-2.835 4.45-3.875 7.317-1.875 2.813-1.875 2.813-4 5h-4l.273 2.176c-.374 3.864-1.99 5.24-4.648 8.011l-2.46 2.606c-4.11 4.191-4.11 4.191-7.009 5.039-3.684 1.363-5.139 2.877-7.656 5.856l-2.32 2.718L677 584l-1.805 1.969c-2.558 2.8-4.148 4.92-5.633 8.468-2.047 4.669-5.066 7.908-8.562 11.563l-1.578 1.691C658 609 658 609 655.75 609.687c-3.606 1.722-5.45 4.173-7.973 7.22-1.627 1.917-3.322 3.622-5.152 5.343-2.527 2.647-3.006 3.384-3.625 6.75h-3l-1 5h-2v4c-2.312 2.563-2.312 2.563-5 5l-1.687 1.813C625 646 625 646 623 646v2h-4l-.375 2.375C618 653 618 653 616 655l-1.926.41c-2.675.76-3.515 1.885-5.261 4.028-3.472 4.185-7.145 8.132-10.895 12.07-2.112 2.744-3.008 5.171-3.918 8.492h-4l-.187 1.813c-1.139 3.064-3.025 3.594-5.813 5.187-2.214 2.391-3.453 4.95-4.812 7.875-2.104 4.304-4.502 7.053-8.188 10.125h-4l.25 2.188c-.332 3.73-1.594 5.23-4.25 7.812h-4l-.187 1.813C558 719 558 719 555.949 720.117c-4.322 2.76-7.49 6.44-10.949 10.196l-2.117 2.263c-7.122 6.995-7.122 6.995-11.82 15.486-1.679 4.64-5.186 6.914-9.426 9.227-3.175 2.06-5.53 4.585-8.012 7.399l-1.45 1.613A907 907 0 0 0 508 771l-2.164 2.426c-5.338 5.752-5.338 5.752-8.836 12.636-.99 2.907-1.559 4.154-4 5.938l-2 .25-2 .75c-.706 1.648-1.403 3.3-2.04 4.977-3.008 6.336-9.192 11.352-14.163 16.164-1.862 1.81-1.862 1.81-3.219 4.03-2.05 2.377-3.555 2.262-6.578 2.829-4.88 4.083-7.9 9.071-10 15h-4l-.168 1.707c-1.21 3.334-3.426 4.744-6.144 6.98-4.262 3.653-6.703 6.757-8.618 12.028-2.27 4.848-6.373 8.491-10.07 12.285l-2.223 2.41-2.09 2.215-1.863 1.977C416 877 416 877 412 877v2a316 316 0 0 1-4.227 3.457c-2.591 2.255-4.75 4.813-6.968 7.43a138 138 0 0 1-3.735 4.195l-1.882 2.043-1.708 1.82c-1.649 2.051-1.649 2.051-2.324 4.899-1.5 4.093-3.83 6.458-6.844 9.531l-3.292 3.457-1.596 1.663c-1.706 1.803-3.322 3.671-4.924 5.567-3.077 3.548-6.328 6.909-9.625 10.25l-1.525 1.565c-2.145 2.15-4.12 3.994-6.78 5.478-3.2 2.048-5.24 4.558-7.678 7.447-1.894 2.2-3.866 4.276-5.9 6.346l-2.05 2.11a528 528 0 0 1-4.157 4.21c-4.271 4.427-7.154 8.626-9.614 14.275-1.657 3.194-3.99 5.325-6.608 7.741-2 1.94-3.2 4.099-4.563 6.516-3.015 4.013-5.647 7.465-10.75 8.625-3.914 1.656-5.486 3.604-8.14 6.84-2.558 3.073-5.26 5.986-7.985 8.91-4.38 4.726-8.736 9.471-13.02 14.285a221 221 0 0 1-4.367 4.711c-4.276 4.444-4.276 4.444-6.675 10.004-2.42 8.253-9.677 15.425-17.063 19.625h-4l-.817 1.8c-1.18 2.193-2.374 3.644-4.117 5.407l-1.716 1.78a790 790 0 0 1-3.563 3.617c-3.745 3.898-5.773 7.308-7.787 12.396-1.902 2.73-1.902 2.73-3.937 5.188l-2.028 2.48c-1.937 2.22-3.853 4.35-6.035 6.332h-2l-.75 1.75c-1.894 3.41-3.877 5.764-7.61 7.086-7.503 3.308-12.163 11.775-16.046 18.656-2.39 3.76-5.38 6.87-8.418 10.113-2.503 2.755-4.667 5.651-6.79 8.704-2.458 2.999-4.34 4.47-8.183 5.28-4.77-.878-7.116-3.655-10.453-7.026l-4.004-3.891-1.95-1.92c-2.27-2.214-4.613-4.334-6.983-6.44a1112 1112 0 0 1-10.688-9.687l-1.515-1.39a7248 7248 0 0 1-7.758-7.133c-5.056-4.65-10.127-9.274-15.329-13.762A76 76 0 0 1 102 1098c.19-4.656 2.354-6.869 5.5-10.125 3.457-3.502 3.457-3.502 5.5-7.875h2l.438-2.375C116 1075 116 1075 117 1073h4v-4l2.113-.598c3.908-1.898 6.226-4.617 9.075-7.84l1.615-1.775c2.283-2.53 4.3-4.94 6.197-7.787h2l.516-1.828c2.499-8.242 2.499-8.242 6.484-11.172l2.367-.816c3.14-1.412 4.662-3.073 6.883-5.684l2.078-2.406c1.705-1.986 1.705-1.986 2.672-4.094h2l.781-1.734c1.333-2.477 2.87-4.4 4.719-6.516l1.844-2.14C174 1013 174 1013 176 1013l.621-1.59c2.36-4.125 5.843-7.311 9.123-10.72l1.604-1.694 1.469-1.526c1.414-1.582 1.414-1.582 2.183-4.47h2v-2h2l1-5 5-1v-4h2l1-4h3v-2c1.61-1.55 1.61-1.55 3.75-3.312 3.168-2.676 5.68-5.427 8.25-8.688h2l.77-1.766c1.363-2.476 2.872-4.04 4.917-5.984 6.728-6.57 12.572-13.749 18.395-21.125L247 932h2l.875-1.75L253 924h2v-3h3v-5l2.938-.812c4.935-2.096 7.527-6.139 10.734-10.278 2.837-3.547 5.976-6.644 9.223-9.812 2.502-2.494 4.794-5.121 7.093-7.801 2.615-2.985 5.312-5.889 8.012-8.797 7.66-8.042 7.66-8.042 14.559-16.715L312 860h2l.66-1.625c1.812-3.212 4.255-5.719 6.777-8.375l3.266-3.488 1.67-1.776a902 902 0 0 0 7.315-7.923 1622 1622 0 0 0 12.125-13.375c2.266-2.526 4.539-5.044 6.812-7.563a727 727 0 0 0 9.867-11.184C364 803 364 803 365.645 801.465c1.62-1.524 1.62-1.524 2.168-4.465 1.585-4.005 3.375-4.13 7.187-6 4.218-3.926 7.217-7.164 8-13h3l.188-1.875L387 774l2.191-.758c3.715-1.643 5.932-4.25 8.559-7.242l1.58-1.758q1.59-1.77 3.169-3.551c2.126-2.395 4.285-4.759 6.438-7.129q2.034-2.28 4.063-4.562l1.629-1.773c2.653-2.978 4.017-5.215 4.371-9.227h4v-2l1.688-.625c4.073-2.422 6.833-5.681 8.125-10.25L433 723h4v-2c1.434-1.375 1.434-1.375 3.438-3 7.005-5.948 16.323-14.14 19.125-23.125.948-3.028 1.91-4.886 4.437-6.875h3l1-3h3v-2h2v-2h2v-3h2l1-4 1.793-.277c2.753-.902 3.693-2.058 5.52-4.285a213 213 0 0 1 7.437-8.5c2.235-2.519 3.711-4.655 4.875-7.813L499 650l2.195-.8c3.94-1.685 6.213-4.375 9.055-7.513l1.64-1.724c2.933-3.193 4.806-5.458 5.11-9.963h4l1-5h3v-3h3v-4h3v-2h2v-2l1.738-.684c2.9-1.688 4.4-3.725 6.45-6.379 3.68-4.632 7.577-8.802 11.796-12.94 5.73-5.544 5.73-5.544 8.016-12.997h3l.188-1.875L565 577l2.191-.758c3.714-1.642 5.933-4.249 8.559-7.242l1.576-1.762a993 993 0 0 0 3.164-3.556 198 198 0 0 1 4.186-4.483c4.614-4.855 7.522-8.712 9.324-15.199h4l1-5h3v-2h2v-2h3v-3h2v-2h2v-3a290 290 0 0 1 5-3 120 120 0 0 0 5.375-5.687l1.445-1.612a788 788 0 0 0 2.854-3.206 459 459 0 0 1 3.56-3.956c3.56-3.853 3.56-3.853 5.766-8.539h2l.438-2.375C638 496 638 496 639 494h4v-4h3v-2h2v-2h3v-2c1.293-1.2 1.293-1.2 3.188-2.687 4.028-3.422 7.403-7.172 10.812-11.188a417 417 0 0 1 15.188-16.875c.675-.713 1.35-1.426 2.047-2.16l3.935-4.151c2.614-2.77 5.2-5.564 7.768-8.377l2.34-2.558c1.768-1.893 1.768-1.893 2.722-4.004h2l.688-1.687c1.665-2.935 3.934-4.935 6.312-7.313l1-3h2v-4h2v-3h4v-5l2.438-.75c2.733-.972 2.733-.972 3.375-3.375L723 402h4v-2h3l.812-1.788c1.2-2.234 2.454-3.775 4.2-5.603l1.787-1.888 1.889-1.971 3.828-4.05 1.841-1.949c2.44-2.601 4.793-5.271 7.116-7.978a240 240 0 0 1 3.46-3.921l1.942-2.164 1.742-1.926c1.59-1.822 1.59-1.822 2.383-4.762h2l.3-2.242c1.167-4.599 4.288-7.576 7.7-10.758l6-3 1.375-2.812c1.649-3.235 2.423-3.96 5.285-5.926 4.321-3.137 7.83-6.687 11.403-10.637l1.84-2.004c4.1-4.48 8.163-8.993 12.097-13.621l1.488-1.703c2.098-2.434 3.484-4.214 4.512-7.297h2v-4h4v-2c1.968-1.86 4.056-3.534 6.152-5.246 2.096-1.714 2.096-1.714 2.848-4.754h2v-3h3v-3h2v-2h2v-3a393 393 0 0 1 5-3 131 131 0 0 0 4-5 282 282 0 0 1 5-5q1.88-1.84 3.75-3.687l1.797-1.762c1.55-1.506 1.55-1.506 2.453-3.551h2a57.5 57.5 0 0 0 3.188-7.312c2.716-6.413 8.017-10.211 13.812-13.688 4.363-3.91 8.21-8.308 12.027-12.742 3.241-3.71 6.595-7.317 9.934-10.938 2.055-2.14 2.055-2.14 3.039-4.32h2l.823-1.8c1.154-2.157 2.326-3.643 4.005-5.407.83-.88.83-.88 1.676-1.78l1.746-1.826c3.409-3.592 6.81-7.192 10.11-10.886l1.467-1.632c1.314-1.87 1.756-3.437 2.173-5.669h3l.188-1.812c1.142-3.076 2.99-3.643 5.812-5.188 2.59-2.128 3.43-3.697 4-7h2v-2l2.063-1.187c6.017-3.713 10.486-9.355 15.074-14.665 4.556-5.254 9.236-10.4 13.965-15.5l1.612-1.74q1.56-1.678 3.125-3.354c6.036-5.964 6.036-5.964 9.161-13.554h2v-3h3v-2h4l.703-1.668c1.653-2.972 3.723-5.159 6.047-7.644l1.431-1.541q2.404-2.58 4.819-5.147 2.865-3.05 5.728-6.102a1405 1405 0 0 1 3.763-3.997l1.736-1.846c.51-.542 1.022-1.083 1.549-1.641 1.329-1.417 1.329-1.417 2.224-3.414h2l.821-1.782c1.94-3.648 4.725-6.488 7.492-9.53l1.724-1.995c4.27-4.691 4.27-4.691 7.736-4.7" fill="#f5412a" stroke="#f5412a" stroke-width="0.8"/><path d="M968.625 309.813c2.843 1.42 5.062 3.006 7.375 5.187v2h2a141 141 0 0 1 5 5l2.25 2.188c2.876 2.978 2.875 4.878 2.875 8.913l.008 3.301-.007 3.664.004 3.879q.005 5.37-.002 10.742-.002 5.828.004 11.656.005 10.227 0 20.455-.004 15.208.002 30.417.007 27.156.002 54.312-.004 23.763-.002 47.526v3.179l.001 12.776q.004 59.97-.005 119.94-.007 53.33 0 106.661a565895 565895 0 0 1 .004 132.472v3.172q-.002 23.754.002 47.51.005 26.996-.003 53.993-.004 15.127 0 30.254.005 10.084-.003 20.17-.004 5.758 0 11.517.004 6.18-.004 12.363l.007 3.67-.008 3.294v2.86C988 1085 988 1085 987 1086a76 76 0 0 1-4.702.124l-3.109.007-3.463-.008-3.656.004q-5.07.003-10.139-.005c-3.665-.003-7.33 0-10.995 0q-9.651.004-19.301-.003-14.35-.008-28.7-.005-24.135.001-48.27-.008-23.91-.01-47.818-.011h-3l-15.078-.001q-53.449-.004-106.898-.019-51.936-.014-103.872-.02h-3.232l-100.638-.013Q373.565 1086.026 273 1086c1.477-3.914 3.006-6.432 5.875-9.5l2.422-2.617L284 1071q3.066-3.309 6.125-6.625l1.572-1.7a469 469 0 0 0 13.865-15.71 495 495 0 0 1 19.098-21.283c7.69-7.97 7.69-7.97 14.361-16.764 1.605-1.907 2.544-2.795 4.96-3.476 2.498-.214 4.935-.236 7.442-.196l2.904-.026c3.229-.022 6.457 0 9.686.02q3.495-.01 6.992-.027c5.746-.023 11.49-.017 17.236 0 6.881.02 13.762.004 20.642-.013 12.699-.03 25.398-.033 38.096-.02q18.862.021 37.726-.001l2.368-.003 11.908-.016c28.12-.037 56.242-.047 84.363-.04a75634 75634 0 0 0 84.515-.024l25.367-.022q25.837-.024 51.676-.042l2.4-.002c52.9-.038 105.799-.037 158.698-.03l-.006-3.827-.421-251.684-.005-2.714-.454-271.753-.082-48.945-.006-3.378-.006-3.287q-.005-3.151-.003-6.302a842 842 0 0 0-.125-15.488l-.041-3.137a430 430 0 0 0-.117-5.82c-.072-6.665.46-13.75 5.282-18.759l2.234-1.406c3.197-2.252 5.57-4.278 7.875-7.437 3.425-4.685 7.316-8.808 11.313-13 5.034-5.283 9.78-10.581 14.144-16.438L947 330h2l.75-2.25c1.355-2.98 2.76-4.65 5.25-6.75h2l.793-1.762c2.283-4.233 5.808-9.067 10.832-9.425" fill="#1a1a1a" stroke="#1a1a1a" stroke-width="0.8"/><path d="m566.041 769.278 3.416-.015c3.786-.01 7.57.023 11.355.056 2.71.005 5.42 0 8.13-.003q8.758-.003 17.516.05a5344 5344 0 0 0 25.324.072c13.696.013 27.392.053 41.088.11q19.956.083 39.912.122l2.485.005 12.343.023c34.13.062 68.26.173 102.39.302v82H484v-3h2l.703-2.2c1.535-3.314 3.388-5.119 6.047-7.612 3.836-3.698 7.1-7.387 10.094-11.79L504 826h2v-2h2l.798-1.774c1.255-2.325 2.609-3.932 4.432-5.835l1.936-2.04 2.021-2.101c4.518-4.729 8.955-9.495 13.239-14.437 2.034-2.343 4.114-4.641 6.199-6.938 2.517-2.779 4.971-5.572 7.312-8.5L546 780h2l.687-1.625c4.687-8.48 7.898-9.253 17.354-9.097" fill="#1a1a1a" stroke="#1a1a1a" stroke-width="0.8"/><path d="M370 474h249c-2.25 5.624-2.25 5.624-4.695 8.172l-1.645 1.737c-.59.607-1.178 1.215-1.785 1.841l-1.867 1.962a1490 1490 0 0 1-3.961 4.148c-3.413 3.568-6.79 7.168-10.172 10.765l-2.031 2.157c-11.615 12.326-11.615 12.326-22.86 24.988a274 274 0 0 1-5.156 5.617l-1.748 1.861a788 788 0 0 1-3.463 3.654c-2.54 2.7-4.685 5.204-6.699 8.34-2.152 3.095-3.535 4.147-6.918 5.758-3.364.37-3.364.37-7.283.36l-2.19.009c-2.418.004-4.834-.012-7.25-.028h-5.205a2889 2889 0 0 1-14.118-.037c-4.92-.019-9.84-.02-14.759-.024-9.314-.01-18.628-.034-27.942-.064-12.588-.04-25.175-.056-37.762-.073-19.83-.029-39.66-.088-59.491-.143z" fill="#1a1a1a" stroke="#1a1a1a" stroke-width="0.8"/><path d="m709.614 620.962 3.525.025q5.764.043 11.529.099l8.034.064q8.422.068 16.843.147 9.7.09 19.4.162 9.365.072 18.731.155 3.967.034 7.936.065 5.563.044 11.127.1l3.28.022 3.105.034 2.65.024c4.752.208 9.488.71 14.226 1.141v80H619c5.078-10.157 14.044-18.36 21.777-26.562a282 282 0 0 0 8.453-9.418c2.379-2.715 4.825-5.366 7.27-8.02a528 528 0 0 0 10.762-12.016c2.028-2.315 4.102-4.584 6.176-6.859 3.096-3.407 5.958-6.903 8.75-10.562 7.35-9.288 16.432-8.715 27.426-8.6" fill="#1a1a1a" stroke="#1a1a1a" stroke-width="0.8"/><path d="M370 623h114c-2.056 4.113-4.565 6.967-7.687 10.25l-3.29 3.512-1.594 1.7a205 205 0 0 0-4.991 5.6c-3.342 3.862-6.794 7.618-10.25 11.376q-4.374 4.754-8.688 9.562c-3.349 3.733-6.73 7.434-10.125 11.125a538 538 0 0 0-10.48 11.727c-2.534 2.873-5.118 5.7-7.707 8.523l-1.458 1.59c-5.521 6.008-5.521 6.008-7.565 6.276l-2.248-.014h-2.583l-2.717-.032-2.496-.006c-3.082-.01-6.164-.038-9.246-.064L370 704z" fill="#1a1a1a" stroke="#1a1a1a" stroke-width="0.8"/><path d="M830 474v80h-76c1.412-2.824 2.714-5.201 4.5-7.75l1.281-1.86L761 543h2l.813-1.937C765 539 765 539 768 538c.676-1.329 1.34-2.664 2-4 1.798-2.354 3.743-4.579 5.688-6.812l1.64-1.901c3.24-3.725 6.562-7.304 10.113-10.736 2.318-2.306 4.419-4.785 6.551-7.262a317 317 0 0 1 5.963-6.57c5.606-6.045 10.867-12.302 16.045-18.719 6.598-8 6.598-8 14-8" fill="#1a1a1a" stroke="#1a1a1a" stroke-width="0.8"/><path d="M556 772h274v80H484v-3q31.406-.048 62.813-.062l2.447-.002c63.873-.033 127.743.217 191.615.564l3.337.018 23.041.126 2.922.016q29.413.165 58.825.34v-77H556z" fill="#1a1a1a" stroke="#1a1a1a" stroke-width="0.8"/><path d="m278 1077 4 2-2 3h-3v2l2.534-.001a699059 699059 0 0 1 209.976-.063c225.33-.038 225.33-.038 389.07.555l6.353.027q50.534.214 101.067.482v1H273c1.526-3.814 2.527-5.966 5-9" fill="#1a1a1a" stroke="#1a1a1a" stroke-width="0.8"/><path d="m837 406 1 3c-1.687 2.34-1.687 2.34-4 5a969 969 0 0 0-6 8.379c-1.863 2.441-3.702 4.586-6 6.621h-2l-.812 1.875C818 433 818 433 815 435h-3l-1 4-4 1v2c-1.285 1.227-1.285 1.227-3.062 2.625-3.428 2.841-6.301 5.906-9.172 9.3q-1.786 2.096-3.657 4.118c-2.857 3.104-4.931 5.542-6.609 9.457-2.335 5.449-5.843 10.266-11.309 12.805-4.153 2.206-6.812 5.11-9.941 8.57l-1.746 1.855c-3.05 3.321-4.902 6.015-6.504 10.27l-3 1-.812 2.125c-1.606 3.887-4.028 7.085-7.188 9.875h-3l-.105 2.074c-1.31 4.286-4.047 6.66-7.207 9.739l-1.764 1.81-1.725 1.709-1.567 1.554C727 532 727 532 723 532l-.75 1.723c-1.91 3.478-4.661 6.092-7.375 8.96-1.933 2.388-2.835 4.45-3.875 7.317-1.875 2.813-1.875 2.813-4 5h-4l.273 2.176c-.374 3.864-1.99 5.24-4.648 8.011l-2.46 2.606c-4.11 4.191-4.11 4.191-6.977 5.02-3.722 1.386-5.566 3.256-8.188 6.187v-3l-2-1 2.313-1.125c3.248-2.266 4.023-4.33 5.687-7.875a180 180 0 0 1 4-4l1-3h3l1-4h3v-2l2.375-.312c2.955-.464 2.955-.464 4.625-3.688.708-2.321 1.38-4.654 2-7h3v-2h3v-3h3l.75-2.687c1.788-4.74 4.05-7.513 8.25-10.313l1.438-2.562C729 519 729 519 731.188 518.188L733 518v-3h2v-2h3l.313-2.312c.734-2.872 1.359-3.918 3.687-5.688h2l.75-1.812c1.43-2.504 2.82-3.669 5.25-5.188h2v-2h2v-4l2-1 1-3h4l2-5h3l1-5h2v-3h2v-2h2v-2h2l.75-1.937C777 467 777 467 779.125 466.25L781 466l.625-3.187c1.238-4.475 3.766-6.048 7.375-8.813l1-3h3v-2h3l.754-2.137c1.4-3.218 3.136-5.827 5.183-8.675l2.09-2.958L806 433h3v-2h2l1-3 2.375-1.875c2.75-1.956 2.75-1.956 4.125-4.812L820 419q2.495-.524 5-1c2.5-2.165 2.5-2.165 5-5a658 658 0 0 1 3.813-3.812l1.832-1.833z" fill="#f5412a" stroke="#f5412a" stroke-width="0.8"/><path d="M341.188 951.313 343 952c-1.402 3.116-3.084 5.411-5.375 7.938l-1.887 2.12L334 964c-2.498 2.854-4.252 5.452-5.812 8.875-1.888 3.977-4.405 6.55-7.59 9.54-1.994 1.978-3.222 4.146-4.598 6.585-3.015 4.013-5.647 7.465-10.75 8.625-3.914 1.656-5.486 3.604-8.14 6.84-2.558 3.073-5.26 5.986-7.985 8.91-4.38 4.726-8.736 9.471-13.02 14.285a221 221 0 0 1-4.367 4.711c-4.276 4.444-4.276 4.444-6.675 10.004-2.42 8.253-9.677 15.425-17.063 19.625h-4l-.817 1.8c-1.18 2.193-2.374 3.644-4.117 5.407l-1.716 1.78a790 790 0 0 1-3.563 3.617c-3.745 3.898-5.773 7.308-7.787 12.396-1.902 2.73-1.902 2.73-3.937 5.188l-2.028 2.48c-1.937 2.22-3.853 4.35-6.035 6.332h-2l-.75 1.75c-1.417 2.55-3.126 4.268-5.25 6.25l-3-1c1.987-3.576 4.079-6.16 7-9a381 381 0 0 0 5.188-5.914 182 182 0 0 1 3.562-3.984c2.955-3.254 4.972-5.516 5.25-10.102h2l.75-2.875c1.424-3.56 1.967-3.642 5.25-5.125l.375-1.79c.838-2.963 2.373-4.322 4.563-6.46l2.152-2.14C241 1059 241 1059 243 1059v-2c3-2 3-2 6-2v-4h3l1-4h3l.188-2.187c1.074-3.72 2.87-5.36 5.812-7.813h3v-2h2v-2h2v-3h2l1-4h3l.188-2.125c1.597-5.651 6.12-9.578 10.812-12.875h2l2-6h3v-3h3l1-4h3l1-5h3l.258-2.262c.893-3.294 2.03-4.376 4.617-6.55l2.117-1.833C313 981 313 981 316 981l1-4h2l1-3h2l.813-2.812c1.147-3.081 1.768-4.14 4.187-6.188l2-2.187c2-1.813 2-1.813 5-1.813l.813-3.312c2.243-6.966 2.243-6.966 6.375-6.375" fill="#f5412a" stroke="#f5412a" stroke-width="0.8"/><path d="m563 705 4 1c-.523 3.767-1.274 6.274-4 9h-4l-.187 1.813C558 719 558 719 555.949 720.117c-4.322 2.76-7.49 6.44-10.949 10.196l-2.117 2.263c-7.122 6.995-7.122 6.995-11.82 15.486-1.679 4.64-5.186 6.914-9.426 9.227-3.175 2.06-5.53 4.585-8.012 7.399l-1.45 1.613A907 907 0 0 0 508 771l-2.164 2.426c-5.338 5.752-5.338 5.752-8.836 12.636-.99 2.907-1.559 4.154-4 5.938l-2 .25-2 .75c-.706 1.648-1.403 3.3-2.04 4.977-3.008 6.336-9.192 11.352-14.163 16.164-1.863 1.832-1.863 1.832-3.363 4.078L468 820c-2.687.25-2.687.25-5 0 1.285-2.867 2.571-4.976 5-7h2l.816-1.777c1.182-2.22 2.465-3.901 4.122-5.785l1.527-1.754c1.468-1.61 2.98-3.157 4.535-4.684l-2-1h2l.188-2.25c1.06-3.592 2.874-4.528 5.812-6.75 1.312-2.117 1.312-2.117 2-4h2v-2h2v-3h4l1-5h3v-2h3l.188-2.125c1.12-3.964 2.973-5.897 5.812-8.875h2l.813-2.437L514 757l3-1 1-3 1.938-.375L522 752c1.198-2.329 1.198-2.329 2-5 .652-1.34 1.314-2.677 2-4h3l.813-1.812c1.197-2.206 2.232-3.624 4.187-5.188h3l.188-2.125c1.12-3.964 2.973-5.897 5.812-8.875h2l2-5h4l.375-2.375C552 715 552 715 554 713h3l.75-1.875c1.456-2.476 2.628-3.076 5.25-4.125z" fill="#f5412a" stroke="#f5412a" stroke-width="0.8"/><path d="M829 624h1v79H619c3-3 3-3 5.534-3.372l3.093.005 3.558-.017 3.913.028q2.06-.001 4.123-.007c3.753-.005 7.507.009 11.26.026 3.987.015 7.973.014 11.959.015q10.13.006 20.26.04c8.472.029 16.944.04 25.416.045 40.308.022 80.583.428 120.884 1.237z" fill="#1a1a1a" stroke="#1a1a1a" stroke-width="0.8"/><path d="M415 747h2c.448 3.064.518 5.198-1.195 7.852-2.593 3.061-5.29 6.156-8.805 8.148h-4l-.297 2.25c-.791 3.095-1.8 4.428-3.953 6.75l-1.902 2.063L395 776l-1.504 1.625c-1.117 1.173-2.3 2.282-3.496 3.375h-2l-.562 2.625c-1.646 3.863-3.392 5.332-6.684 7.785-2.153 1.951-3.265 4.097-4.754 6.59a161 161 0 0 1-5.125 5.75l-1.468 1.587c-2.996 3.22-6.074 6.337-9.22 9.413-2.701 2.654-5.052 5.292-7.25 8.375-2.621 3.669-5.644 6.458-9.105 9.332-1.856 1.495-1.856 1.495-3.383 3.242C339 837 339 837 336 837l-.875 2.875C334 843 334 843 332 845h-3l-1 4h-3l-.312 1.813c-.777 2.47-1.759 3.51-3.688 5.187l-3-1c2.788-4.647 6.066-8.173 9.941-11.95 2.483-2.472 4.749-5.086 7.032-7.741 2.515-2.865 5.115-5.646 7.714-8.434 4.86-5.22 9.546-10.565 14.128-16.03 2.384-2.824 4.812-5.49 7.474-8.056 2.905-2.57 2.905-2.57 3.711-5.976 1.383-3.89 3.347-4.02 7-5.813 4.218-3.926 7.217-7.164 8-13h3l.188-1.875L387 774l2.191-.758c3.715-1.643 5.932-4.25 8.559-7.242l1.574-1.75c1.566-1.743 3.121-3.496 4.676-5.25q1.353-1.507 2.71-3.012 2.28-2.525 4.548-5.062A109 109 0 0 1 415 747" fill="#f5412a" stroke="#f5412a" stroke-width="0.8"/><path d="M435 852c-.37 5.417-2.432 8.204-6.125 11.938l-1.506 1.57a415 415 0 0 1-2.992 3.08 176 176 0 0 0-3.522 3.744l-1.793 1.918-1.527 1.64C416 877 416 877 412 877v2a316 316 0 0 1-4.227 3.457c-2.591 2.255-4.75 4.813-6.968 7.43a138 138 0 0 1-3.735 4.195l-1.882 2.043-1.708 1.82c-1.649 2.051-1.649 2.051-2.324 4.899-1.5 4.093-3.83 6.458-6.844 9.531l-3.292 3.457-1.596 1.663c-1.706 1.803-3.322 3.671-4.924 5.567-3.127 3.6-6.415 7.031-9.75 10.438l-1.576 1.64c-1.334 1.347-2.75 2.61-4.174 3.86h-3c.784-3.921 2.187-7.442 4-11 2.188-.937 2.188-.937 4-1l.2-2.152c1.054-3.752 2.94-5.597 5.613-8.41l2.644-2.817L375 911l2.2-2.34C379 907 379 907 381 907v-2h2l.75-1.75c1.433-2.58 3.034-4.311 5.25-6.25h2v-2h2v-2h2v-2h2l1-3h2l.813-3.25c1.048-3.312 1.815-5.279 4.187-7.75h2l2-4h4l1-4h5v-2a381 381 0 0 1 6-5l1-2h2l.25-1.75c1.088-3.264 3.091-6.25 6.75-6.25" fill="#f5412a" stroke="#f5412a" stroke-width="0.8"/><path d="M827 293c.75 1.688.75 1.688 1 4-1.852 2.85-3.71 4.785-6.437 6.813-2.901 2.476-4.386 4.981-6.31 8.23-1.738 2.714-3.893 4.778-6.253 6.957l-2.187 2.313C805 323 805 323 803 323l-.59 2.05c-1.954 4.089-4.838 6.908-7.972 10.137a1637 1637 0 0 0-3.567 3.731l-1.596 1.65c-1.38 1.424-1.38 1.424-2.275 3.432h-2l-.727 1.75c-1.525 2.694-3.293 4.247-5.648 6.25-2.354 2.016-4.61 3.983-6.742 6.234C770 360 770 360 767.25 360.25L765 360l-.875 1.938C763 364 763 364 761 365v-3h2l.3-2.242c1.167-4.599 4.288-7.576 7.7-10.758l6-3 1.375-2.812c1.649-3.235 2.423-3.96 5.285-5.926 4.321-3.137 7.83-6.687 11.403-10.637l1.84-2.004c4.1-4.48 8.163-8.993 12.097-13.621l1.488-1.703c2.098-2.434 3.484-4.214 4.512-7.297h2v-4h4v-2c3.462-3 3.462-3 6-3" fill="#f5412a" stroke="#f5412a" stroke-width="0.8"/><path d="m635 624 4 1v4h-3l-1 5h-2v4c-2.312 2.563-2.312 2.563-5 5l-1.687 1.813C625 646 625 646 623 646v2h-4l-.375 2.375C618 653 618 653 616 655l-1.926.41c-2.675.76-3.515 1.885-5.261 4.028-3.472 4.185-7.145 8.132-10.895 12.07-2.112 2.744-3.008 5.171-3.918 8.492h-4l-.187 1.813c-1.139 3.064-3.025 3.594-5.813 5.187-2.214 2.391-3.453 4.95-4.812 7.875-2.104 4.304-4.502 7.053-8.188 10.125h-4c1.664-3.657 3.851-6.2 6.563-9.121 1.666-2.178 2.427-4.336 3.437-6.879 3.391-5.143 6.623-8.948 12-12q2.004-2.998 4-6a217 217 0 0 1 5.188-5.75c3.284-3.36 3.284-3.36 5.812-7.25h2l.813-1.75c1.216-2.306 2.49-4.27 4.187-6.25h2l.75-1.937C615 646 615 646 617.125 645.25L619 645v-3h2l1-4h2l2-4h3v-3h2v-2h3z" fill="#f5412a" stroke="#f5412a" stroke-width="0.8"/><path d="M265 1035h2c-1.349 10.284-6.788 17.673-14.75 24.188-3.26 2.503-3.93 2.812-8.25 2.812l-.817 1.8c-1.18 2.193-2.374 3.644-4.117 5.407l-1.716 1.78a790 790 0 0 1-3.563 3.617c-3.745 3.898-5.773 7.308-7.787 12.396-1.902 2.73-1.902 2.73-3.937 5.188l-2.028 2.48c-1.937 2.22-3.853 4.35-6.035 6.332h-2l-.75 1.75c-1.417 2.55-3.126 4.268-5.25 6.25l-3-1c1.987-3.576 4.079-6.16 7-9a381 381 0 0 0 5.188-5.914 182 182 0 0 1 3.562-3.984c2.955-3.254 4.972-5.516 5.25-10.102h2l.75-2.875c1.424-3.56 1.967-3.642 5.25-5.125l.375-1.79c.838-2.963 2.373-4.322 4.563-6.46l2.152-2.14C241 1059 241 1059 243 1059v-2c3-2 3-2 6-2v-4h3l1-4h3l.188-2.187c1.074-3.72 2.87-5.36 5.812-7.813h3z" fill="#f5412a" stroke="#f5412a" stroke-width="0.8"/><path d="M699 435c.53 3.032.545 5.165-1.172 7.793-1.867 2.155-3.818 4.184-5.828 6.207l-2.633 2.71c-4.067 4.136-8.135 8.162-12.617 11.853-3.83 3.247-6.47 7.016-9.207 11.203-3.375 4.887-7.875 8.345-13.543 10.234a69 69 0 0 0-1 4c-2.044 4.19-4.013 5.722-8 8-3.198 2.73-5.234 5.234-7 9-1.774 3.755-3.628 6.45-7 9-2.812-.187-2.812-.187-5-1l1.207-1.574c2.342-3.083 4.59-6.078 6.543-9.426l1.25-2h2l.438-2.375C638 496 638 496 639 494h4v-4h3v-2h2v-2h3v-2c1.293-1.2 1.293-1.2 3.188-2.687 4.028-3.422 7.403-7.172 10.812-11.188 5.576-6.56 11.375-12.862 17.307-19.1a401 401 0 0 0 13.091-14.435C697 435 697 435 699 435" fill="#f5412a" stroke="#f5412a" stroke-width="0.8"/><path d="m121 1069 4 1-1 1-.227 3.16c-.964 4.787-2.816 6.873-6.148 10.277l-1.5 1.64c-1.304 1.378-2.71 2.659-4.125 3.923h-3c-1.275 5.511-1.275 5.511.438 10.625 4.284 3.97 8.883 7.31 13.812 10.438 2.903 2.045 4.576 4.151 6.75 6.937q1.54 1.28 3.125 2.5C136 1123 136 1123 137 1125.688l1 2.312a101 101 0 0 0 6 2l1 3c1.325.683 2.66 1.346 4 2a99 99 0 0 1 4.75 4.438l2.422 2.37C158 1144 158 1144 158 1147c-3.913-.546-5.587-2.3-8.25-5.125-2.753-2.847-5.494-5.608-8.5-8.187-3.573-3.07-7.044-6.237-10.5-9.438l-1.68-1.555-3.39-3.14c-6.647-6.153-13.298-12.297-20.157-18.215A76 76 0 0 1 102 1098c.19-4.656 2.354-6.869 5.5-10.125 3.457-3.502 3.457-3.502 5.5-7.875h2l.438-2.375C116 1075 116 1075 117 1073h4z" fill="#f5412a" stroke="#f5412a" stroke-width="0.8"/><path d="M306 867h1c.342 3.629.384 5.444-1.723 8.492l-2.34 2.383-2.507 2.617L298 883a359 359 0 0 0-3.437 4c-2.774 3.2-5.725 6.162-8.75 9.125-2.75 2.699-5.234 5.212-7.25 8.5L277 907h-3l-.277 2.255c-.846 3.211-1.908 4.384-4.286 6.663l-2.164 2.111-2.273 2.159q-2.221 2.143-4.437 4.292l-1.997 1.904c-1.658 1.548-1.658 1.548-2.566 3.616l-6 3c-1.816 1.561-1.816 1.561-3 3l-2-1 2-3h2l.875-1.75L253 924h2v-3h3v-5l2.938-.812c4.935-2.096 7.527-6.139 10.734-10.278 2.837-3.547 5.976-6.644 9.223-9.812 2.498-2.49 4.787-5.113 7.082-7.79 3.175-3.622 6.47-7.135 9.76-10.653 2.29-2.46 4.47-4.915 6.564-7.55z" fill="#f5412a" stroke="#f5412a" stroke-width="0.8"/><path d="m190 996 2 1v3l-1.852.707c-2.73 1.643-3.27 3.08-4.523 5.98-2.203 4.699-4.706 8.842-8.625 12.313h-2v2c-3.979 4.288-8.412 8.123-12.803 11.982-2.732 2.458-4.868 4.552-6.197 8.018h-3l-.5 2.563c-1.818 4.165-4.13 5.931-7.59 8.757-2.233 1.964-3.615 4.01-4.91 6.68l-5-1a340 340 0 0 1 2.375-3.5l1.336-1.969L140 1051h2l.516-1.828c2.499-8.242 2.499-8.242 6.484-11.172l2.367-.816c3.14-1.412 4.662-3.073 6.883-5.684l2.078-2.406c1.705-1.986 1.705-1.986 2.672-4.094h2l.781-1.734c1.333-2.477 2.87-4.4 4.719-6.516l1.844-2.14C174 1013 174 1013 176 1013l.824-1.798c1.15-2.155 2.33-3.664 3.996-5.436l1.621-1.739 1.684-1.777 1.707-1.824q2.079-2.218 4.168-4.426" fill="#f5412a" stroke="#f5412a" stroke-width="0.8"/><path d="M243 937h2c.5 2.563.5 2.563 0 6-1.804 1.925-3.769 3.49-5.832 5.133-2.777 2.391-4.755 5.078-6.844 8.07-1.337 1.814-2.59 3.353-4.324 4.797h-3l-.687 1.625c-1.782 3.224-3.794 5.671-6.313 8.375h-3l-.723 2.223c-1.464 3.183-3.147 4.85-5.714 7.215-3.49 3.35-5.475 6.187-7.563 10.562-1.885 2.047-3.677 3.388-6 5h-4v-3h2v-2h2l1-5 5-1v-4h2l1-4h3v-2c1.61-1.55 1.61-1.55 3.75-3.312 3.168-2.676 5.68-5.427 8.25-8.688h2l.77-1.766c1.363-2.476 2.872-4.04 4.917-5.984 5.08-4.951 9.687-10.221 14.125-15.75z" fill="#f5412a" stroke="#f5412a" stroke-width="0.8"/><path d="M415 747h2c.448 3.064.518 5.198-1.195 7.852-2.593 3.061-5.29 6.156-8.805 8.148h-4l-.297 2.25c-.791 3.095-1.8 4.428-3.953 6.75-.942 1.02-.942 1.02-1.902 2.063L395 776l-1.504 1.625c-1.117 1.173-2.3 2.282-3.496 3.375h-2l-.5 2.563c-3.411 7.817-12.073 12.724-19.5 16.437-.125-2.375-.125-2.375 0-5 2-2 2-2 4.188-2.625 4.257-2.081 7.187-5.458 9.812-9.375.734-2.656.734-2.656 1-5h3l.188-1.875L387 774l2.191-.758c3.715-1.643 5.932-4.25 8.559-7.242l1.574-1.75c1.566-1.743 3.121-3.496 4.676-5.25q1.353-1.507 2.71-3.012 2.28-2.525 4.548-5.062A109 109 0 0 1 415 747" fill="#f5412a" stroke="#f5412a" stroke-width="0.8"/><path d="m507 773-1.46 1.426c-.633.622-1.264 1.245-1.915 1.886l-1.898 1.864c-2.338 2.47-3.648 4.572-4.664 7.824-1.034 2.92-1.604 4.203-4.063 6l-2 .25-2 .75c-.706 1.648-1.403 3.3-2.04 4.977-3.008 6.336-9.192 11.352-14.163 16.164-1.863 1.832-1.863 1.832-3.363 4.078L468 820c-2.687.25-2.687.25-5 0 1.285-2.867 2.571-4.976 5-7h2l.816-1.777c1.182-2.22 2.465-3.901 4.122-5.785l1.527-1.754c1.468-1.61 2.98-3.157 4.535-4.684l-2-1h2l.188-2.25c1.06-3.592 2.874-4.528 5.812-6.75 1.312-2.117 1.312-2.117 2-4h2v-2h2v-3h4l1-5h3v-2c3-1 3-1 6 0" fill="#f5412a" stroke="#f5412a" stroke-width="0.8"/><path d="m1023 196 3 1c-.966 2.154-1.746 3.767-3.5 5.375-1.719 1.616-1.719 1.616-2.266 4.34-1.465 3.9-3.67 6.496-6.484 9.472l-1.41 1.577c-3.14 3.387-6.165 5.331-10.34 7.236-2.206 1.893-2.206 1.893-2.852 4.79-1.3 3.636-2.943 5.73-5.523 8.585l-2.336 2.648C989 243 989 243 985 243c1.982-4.663 5.456-7.841 8.906-11.465 2.065-2.5 3.013-4.513 4.094-7.535 2-2.812 2-2.812 4-5h2l.695-2.719c1.5-3.77 3.067-5.231 6.18-7.781 3.866-3.298 6.502-6.198 9.125-10.5z" fill="#f5412a" stroke="#f5412a" stroke-width="0.8"/><path d="m538 613 1 2c-1 2-1 2-3.25 3.25-4.031 2.565-6.706 5.933-9.078 10.063-1.988 3.195-4.338 5.978-6.797 8.812l-2.95 3.438-1.485 1.734c-2.897 3.426-5.678 6.947-8.467 10.46-1.89 2.149-3.52 3.774-5.973 5.243h-4c.125-3.312.125-3.312 1-7l6-3c2.29-1.961 4.292-4.141 6.313-6.375.536-.565 1.073-1.13 1.626-1.71 2.918-3.18 4.75-5.434 5.061-9.915h4l1-5h3v-3h3v-4h3v-2h2v-2z" fill="#f5412a" stroke="#f5412a" stroke-width="0.8"/><path d="M738 392c-.42 4.906-2.478 6.719-6 10a171 171 0 0 0-2.625 3.25C727 408 727 408 724 409c-1.586 1.635-1.586 1.635-3.062 3.563-1.536 1.94-1.536 1.94-2.938 3.437h-2l-.312 2.188c-.756 3.09-1.843 5.23-3.688 7.812h-2v2c-1.645 1.762-1.645 1.762-3.812 3.688l-2.145 1.949L702 435l-3-1v-2h2l.688-1.687c1.665-2.935 3.934-4.935 6.312-7.313l1-3h2v-4h2v-3h4v-5l2.438-.75c2.733-.972 2.733-.972 3.375-3.375L723 402h4v-2h3l.75-1.75c1.668-3.002 3.573-6.25 7.25-6.25" fill="#f5412a" stroke="#f5412a" stroke-width="0.8"/><path d="m478 674 5 1c-2 4.825-4.596 7.748-8.3 11.273-2.293 2.33-3.92 4.996-5.7 7.727a282 282 0 0 1-5 5 459 459 0 0 0-5.254 6.328c-1.924 1.842-3.145 2.285-5.746 2.672.413-2.785 1.042-4.05 2.875-6.25 2.257-2.92 3.227-5.404 4.316-8.883.95-2.194 1.933-3.39 3.809-4.867h3l1-3h3v-2h2v-2h2v-3h2z" fill="#f5412a" stroke="#f5412a" stroke-width="0.8"/><path d="M477 799h4l-1 3h-2l-.828 1.785c-2.484 4.694-6.178 8.545-10.36 11.778-3.063 2.655-4.05 4.838-5.812 8.437a70 70 0 0 1-3.062 3c-2.88 2.7-4.012 5.11-4.938 9h-4l-.25 1.75c-.976 2.928-2.385 4.302-4.75 6.25h-3c1.152-2.468 2.048-4.048 4-6l1.313-3.187c2.88-6.915 6.457-10.701 12.687-14.813 4.351-4.38 8.038-9.265 11.543-14.336C472 804 472 804 474.113 802.961c2.245-.865 2.245-.865 2.887-3.961" fill="#f5412a" stroke="#f5412a" stroke-width="0.8"/><path d="M859 382c-1.417 3.252-3.125 5.314-5.687 7.75-3.435 3.341-6.604 6.817-9.731 10.445-2.088 2.383-4.314 4.594-6.582 6.805a2215 2215 0 0 0-3.5 3.5l-1.793 1.79a432 432 0 0 0-3.195 3.233c-3.305 3.374-3.305 3.374-5.512 4.477l1-6h3v-4h4v-3h3l.188-2.812C835 401 835 401 837.5 399.25L840 398l1-2h3v-4h3l.188-1.625c1.924-5.626 5.678-10.215 11.812-8.375" fill="#f5412a" stroke="#f5412a" stroke-width="0.8"/><path d="M391 901c-.36 5.12-3.2 7.821-6.625 11.313q-1.662 1.74-3.32 3.484l-1.615 1.682c-1.712 1.808-3.333 3.681-4.94 5.583-3.127 3.6-6.415 7.031-9.75 10.438l-1.576 1.64c-1.334 1.347-2.75 2.61-4.174 3.86h-3c.56-3.243 1.413-4.93 4-7h2l.777-1.777c1.335-2.426 2.768-3.898 4.786-5.785 3.237-3.145 6.117-6.414 8.937-9.938C387.364 901 387.364 901 391 901" fill="#f5412a" stroke="#f5412a" stroke-width="0.8"/><path d="m921 187 2 1c-2.341 11.759-17.822 25.007-27 32a156 156 0 0 1-5 3c.583-3.164 1.466-4.853 3.688-7.164l1.617-1.711 1.695-1.75c3.941-3.862 3.941-3.862 7-8.375h2l.824-1.798c1.15-2.155 2.33-3.664 3.996-5.436l1.621-1.739 1.684-1.777 1.707-1.824q2.079-2.218 4.168-4.426" fill="#f5412a" stroke="#f5412a" stroke-width="0.8"/><path d="M786.21 340.328 788 341l-1 3h-2l-.727 1.75c-1.525 2.694-3.293 4.247-5.648 6.25-2.354 2.016-4.61 3.983-6.742 6.234C770 360 770 360 767.25 360.25L765 360l-.875 1.938C763 364 763 364 761 365v-3h2l.3-2.242c1.17-4.608 4.296-7.558 7.7-10.758a101 101 0 0 1 6-3 106 106 0 0 0 5.29-4.89c1.71-1.11 1.71-1.11 3.92-.782" fill="#f5412a" stroke="#f5412a" stroke-width="0.8"/><path d="M651 484h2c-.568 4.92-4.292 8.135-7.488 11.625-2.84 3.17-5.08 6.23-7.074 10-2.081 3.882-3.89 6.715-7.438 9.375-2.812-.187-2.812-.187-5-1l1.207-1.574c2.342-3.083 4.59-6.078 6.543-9.426l1.25-2h2l.438-2.375C638 496 638 496 639 494h4v-4h3v-2h2v-2h3z" fill="#f5412a" stroke="#f5412a" stroke-width="0.8"/><path d="m837 406 1 3c-1.687 2.34-1.687 2.34-4 5a969 969 0 0 0-6 8.379c-1.863 2.441-3.702 4.586-6 6.621h-2l-.812 1.875C818 433 818 433 815 435h-3l-1 4-4 1v2h-2c1.697-4.29 4.82-7.266 7.938-10.562l1.63-1.749c1.47-1.57 2.943-3.137 4.432-4.689l1.553-1.687C822 422 822 422 824 422l.188-1.687c1.167-3.322 3.244-4.913 5.812-7.313a877 877 0 0 0 3.813-3.812z" fill="#f5412a" stroke="#f5412a" stroke-width="0.8"/><path d="M604 535h2c-2.07 8.078-4.349 12.797-10.812 18.188-4.09 3.435-6.712 7.313-9.45 11.87C584 567 584 567 581.293 567.286L579 567c1.862-4.645 5.528-7.853 9.012-11.314 3.562-3.71 4.925-6.645 5.988-11.686h4l1-5h3v-2h2z" fill="#f5412a" stroke="#f5412a" stroke-width="0.8"/><path d="m755 496 1 4-1.875.688c-2.304 1.132-2.304 1.132-3 3.5-1.55 3.876-3.99 7.044-7.125 9.812h-3l-.102 2.074c-1.319 4.296-4.092 6.664-7.273 9.739l-1.79 1.81C727.395 532 727.395 532 724 532c4.776-10.987 16.02-20.211 24.424-28.438l2.146-2.105 1.93-1.876c1.594-1.527 1.594-1.527 2.5-3.581" fill="#f5412a" stroke="#f5412a" stroke-width="0.8"/><path d="M1093 98c3.327.595 5.17 1.705 7.688 3.938l1.824 1.59c2.151 2.128 2.5 3.529 3.113 6.534-.947 5.966-4.911 9.348-9.625 12.938h-3l2-9h2v-2h2c0-4.385-.171-4.636-3-7.562-3-3.119-3-3.119-3-6.438" fill="#f5412a" stroke="#f5412a" stroke-width="0.8"/><path d="M529 746h2c-.219 3.827-.915 4.919-3.75 7.625-1.814 1.422-3.569 2.546-5.605 3.64-3.887 2.55-6.642 6.02-9.627 9.528-4.314 4.91-4.314 4.91-8.018 5.207 1.367-3.987 3.152-6.885 6-10h2l.813-2.437L514 757l3-1 1-3 2.75-.875c3.814-1.32 5.51-3.233 8.25-6.125" fill="#f5412a" stroke="#f5412a" stroke-width="0.8"/><path d="M327 969h2c-.524 3.944-1.452 5.944-4.187 8.813-3.568 3.874-6.693 7.95-9.813 12.187-2.304 3.028-3.824 4.882-7 7h-4c1.598-3.862 4.221-6.582 7.063-9.562 4.643-4.958 9-10.06 13.257-15.356C326 970 326 970 327 969" fill="#f5412a" stroke="#f5412a" stroke-width="0.8"/><path d="m563 705 4 1c-.523 3.767-1.274 6.274-4 9h-4l-.187 1.813c-1.144 3.08-2.99 3.611-5.813 5.187l-2.187 2.188L549 726h-2l-1-5 5-1 .375-2.375C552 715 552 715 554 713h3l.75-1.875c1.456-2.476 2.628-3.076 5.25-4.125z" fill="#f5412a" stroke="#f5412a" stroke-width="0.8"/><path d="M593 675h2l-1 5h-4l-.187 1.813c-1.139 3.064-3.025 3.594-5.813 5.187-2.214 2.391-3.453 4.95-4.812 7.875-2.104 4.304-4.502 7.053-8.188 10.125h-4c1.33-2.922 2.826-5.084 5-7.437 2.449-2.779 3.652-5.108 5-8.563 3.321-5.423 5.686-8.353 12-10a90 90 0 0 0 4-4" fill="#f5412a" stroke="#f5412a" stroke-width="0.8"/><path d="m121 1069 4 1-1 1-.227 3.16c-.964 4.787-2.816 6.873-6.148 10.277l-1.5 1.64c-1.304 1.378-2.71 2.659-4.125 3.923h-3l-1 3h-2l-3 2c1.28-4.692 3.969-7.16 7.441-10.352 1.802-1.672 1.802-1.672 2.559-4.648h2l.438-2.375C116 1075 116 1075 117 1073h4z" fill="#f5412a" stroke="#f5412a" stroke-width="0.8"/><path d="M227 1080c.758 1.629.758 1.629 1 4-1.695 2.84-1.695 2.84-4.125 5.938l-2.383 3.09c-2.375 2.833-4.763 5.477-7.492 7.972h-2l-.75 1.75c-1.417 2.55-3.126 4.268-5.25 6.25l-3-1c1.987-3.576 4.079-6.16 7-9q1.607-1.801 3.188-3.625c10.29-11.853 10.29-11.853 13.812-15.375" fill="#f5412a" stroke="#f5412a" stroke-width="0.8"/><path d="M387 774h4a247 247 0 0 1-2 6l-1.125 3.438C384.447 791.24 375.351 796.324 368 800c-.125-2.375-.125-2.375 0-5 2-2 2-2 4.188-2.625 4.257-2.081 7.187-5.458 9.812-9.375.734-2.656.734-2.656 1-5h3z" fill="#f5412a" stroke="#f5412a" stroke-width="0.8"/><path d="m221 1083 3 1-2.484 2.633-3.266 3.492-1.633 1.727c-2.544 2.73-4.74 5.333-6.82 8.453C208 1103 208 1103 205 1105a393 393 0 0 0-3 5c-1.562 2.17-3.166 4.029-5 6h-3l1-6h4v-4c1.636-1.37 3.307-2.7 5-4a261 261 0 0 0 3-5h2v-2h2v-2l2-1a264 264 0 0 0 3-5l2-2h3z" fill="#f5412a" stroke="#f5412a" stroke-width="0.8"/><path d="m212 973 1 3-1.863 1.758c-4.377 4.23-7.502 7.722-10.137 13.242-1.885 2.047-3.677 3.388-6 5h-4v-3h2v-2h2l1-5 5-1v-4h2l1-4h3v-2z" fill="#f5412a" stroke="#f5412a" stroke-width="0.8"/><path d="M341.188 951.313 343 952c-1.402 3.116-3.084 5.411-5.375 7.938-2.024 2.249-3.924 4.457-5.75 6.875C330 969 330 969 327.715 970.25c-3.339 2.152-5.585 4.865-8.027 7.938A645 645 0 0 0 315 984l-2.001-1.001v-2h3l1-4h2l1-3h2l.813-2.812c1.147-3.081 1.768-4.14 4.187-6.188l2-2.187c2-1.813 2-1.813 5-1.813l.813-3.312c2.243-6.966 2.243-6.966 6.375-6.375" fill="#f5412a" stroke="#f5412a" stroke-width="0.8"/><path d="M487 793c.64 1.777.64 1.777 1 4-3.056 6.471-9.436 11.57-14.512 16.484-2.477 2.375-2.477 2.375-4.152 4.828L468 820c-2.687.25-2.687.25-5 0 1.285-2.867 2.571-4.976 5-7h2l.824-1.785c2.911-5.484 7.77-9.924 12.176-14.215l2.313-2.312z" fill="#f5412a" stroke="#f5412a" stroke-width="0.8"/><path d="M344 825c0 3 0 3-2 6l4-3 2 1-2.812 2.313c-1.748 1.444-3.328 2.837-4.875 4.5C339 837 339 837 336 837l-.875 2.875C334 843 334 843 332 845h-3l-1 4h-3l-.312 1.813c-.777 2.47-1.759 3.51-3.688 5.187l-3-1c2.783-4.64 6.053-8.161 9.922-11.93 3.21-3.199 6.129-6.632 9.078-10.07q1.967-2.251 3.938-4.5l1.777-2.031z" fill="#f5412a" stroke="#f5412a" stroke-width="0.8"/><path d="m982 120 2 1c-1.387 2.94-2.968 5.555-4.875 8.188l-1.492 2.105c-1.853 1.937-3.018 2.328-5.633 2.707l-.312 1.688c-.83 2.789-2.031 4.926-3.688 7.312h-2v2l-3 2-3-1c2.033-3.607 4.26-6.583 7.063-9.625l2.375-2.594L972 131a3190 3190 0 0 0 4.203-4.626q2.895-3.19 5.797-6.374" fill="#f5412a" stroke="#f5412a" stroke-width="0.8"/><path d="M266 914c0 3.442-.56 5.487-2.812 8.11a201 201 0 0 1-4.375 4.156c-1.895 1.618-1.895 1.618-2.813 3.734l-6 3c-1.816 1.561-1.816 1.561-3 3l-2-1 2-3h2l.875-1.75L253 924h2v-3h3v-5c5.75-2 5.75-2 8-2" fill="#f5412a" stroke="#f5412a" stroke-width="0.8"/><path d="m188 1124 1 3a91 91 0 0 1-5.562 6.688q-1.677 1.888-3.348 3.78l-1.63 1.84c-2.236 2.591-4.233 5.329-6.179 8.141-1.572 1.903-3.206 3.22-5.281 4.551-2.25-.312-2.25-.312-4-1a159 159 0 0 1 5-6h2l.688-1.64c1.725-3.102 3.925-5.487 6.312-8.11l1.367-1.535c1.167-1.28 2.396-2.503 3.633-3.715h2l.875-1.875C186 1126 186 1126 188 1124" fill="#f5412a" stroke="#f5412a" stroke-width="0.8"/><path d="M435 852c-.37 5.416-2.432 8.204-6.125 11.938l-1.506 1.569q-1.489 1.546-2.992 3.076a147 147 0 0 0-3.522 3.784l-1.793 1.946-1.527 1.675C416 877 416 877 413.81 876.668L412 876a185 185 0 0 1 11-12l1.688-2.312L426 860h2l.25-1.75c1.088-3.264 3.091-6.25 6.75-6.25" fill="#f5412a" stroke="#f5412a" stroke-width="0.8"/><path d="M264 1040c.71 1.668.71 1.668 1 4-3.711 7.086-9.755 14.35-17 18-2.266-.328-2.266-.328-4-1a732 732 0 0 1 3.875-4.5l2.18-2.531L252 1052h2l.688-1.687c1.68-2.96 3.853-4.974 6.312-7.313l1.813-1.812z" fill="#f5412a" stroke="#f5412a" stroke-width="0.8"/><path d="M191.313 1117.188 193 1118c-1.19 4.166-3.053 6.126-6.437 8.77-5.07 3.992-9.201 9.124-13.477 13.925A117 117 0 0 1 168 1146l-2-2 3-2 1-3h3l1-4h3l.375-2.312C178 1130 178 1130 180 1127h3l.188-2.187c1.16-4.018 3.542-7.997 8.125-7.626" fill="#f5412a" stroke="#f5412a" stroke-width="0.8"/><path d="M751 375h2c-1.292 8.68-4.413 13.136-11.312 18.375-1.224.882-2.452 1.76-3.688 2.625-.758-2.191-.758-2.191-1-5 1.695-2.465 1.695-2.465 4.125-4.937l2.512-2.614L746 381a175 175 0 0 0 2.938-3.625z" fill="#f5412a" stroke="#f5412a" stroke-width="0.8"/><path d="m635 629 1 4-3 1v4c-2.312 2.563-2.312 2.563-5 5l-1.687 1.813C625 646 625 646 623 646v2h-4l-.375 2.375C618 653 618 653 616 655h-3c.576-3.568 1.87-5.252 4.438-7.75l1.87-1.86C621 644 621 644 623 644l.816-1.734c1.218-2.33 2.575-4.39 4.121-6.516l1.528-2.14L631 632h3z" fill="#f5412a" stroke="#f5412a" stroke-width="0.8"/><path d="M713 413h4c-.515 5.281-2.255 8.572-5 13h-2v2c-1.645 1.762-1.645 1.762-3.812 3.688l-2.145 1.949L702 435l-3-1v-2h2l.688-1.687c1.665-2.935 3.934-4.935 6.312-7.313l1-3h2v-4h2z" fill="#f5412a" stroke="#f5412a" stroke-width="0.8"/><path d="M1000 100h3c-.597 3.331-1.72 5.213-3.937 7.75l-1.59 1.86C996 111 996 111 994 111l-.125 1.688c-1.365 3.606-3.786 5.042-6.875 7.312h-2c.783-3.916 2.392-7.364 4-11h2v-3h3v-2h4z" fill="#f5412a" stroke="#f5412a" stroke-width="0.8"/><path d="M449 709h2c.5 2.5.5 2.5 0 6-4.465 6.001-10.69 10.144-17 14-1-1-1-1-1.062-3.562L433 723h4v-2c1.61-1.55 1.61-1.55 3.75-3.312 3.168-2.676 5.68-5.427 8.25-8.688" fill="#f5412a" stroke="#f5412a" stroke-width="0.8"/><path d="m495 658 2 1c-.542 8.679-9.135 15.403-15 21-1-2-1-2-1-5 2.62-4.42 5.765-8.115 9.25-11.875l2.703-2.93z" fill="#f5412a" stroke="#f5412a" stroke-width="0.8"/><path d="m973.25 254.25 1.75.75c-.54 3.785-2.076 5.592-5 8h-3l-.375 2.375C966 268 966 268 964 270h-4l-1-3c1.813-2.687 1.813-2.687 4-5h2l.75-1.75c3.576-6.436 3.576-6.436 7.5-6" fill="#f5412a" stroke="#f5412a" stroke-width="0.8"/><path d="m1035 62 2 1v4l-2.375.625c-2.907 1.136-2.907 1.136-3.562 4.188-1.452 4.353-3.357 5.54-7.063 8.187l-3 1c-1.667 1.5-1.667 1.5-3 3 .525-4.109 1.668-6.255 4.438-9.312l1.87-2.114C1026 71 1026 71 1028 71l.688-1.687c1.671-2.945 3.865-4.995 6.312-7.313" fill="#f5412a" stroke="#f5412a" stroke-width="0.8"/><path d="m717 535 4 1-1.68 1.793-2.195 2.394-2.18 2.356c-1.943 2.454-2.888 4.536-3.945 7.457-1.875 2.813-1.875 2.813-4 5h-4l.898-1.703c1.111-2.317 1.937-4.604 2.727-7.047.26-.8.52-1.598.79-2.422L708 542h3v-2h3v-3h3z" fill="#f5412a" stroke="#f5412a" stroke-width="0.8"/><path d="m876 359 3 1c-1.56 3.793-3.942 6.114-6.875 8.938-2.635 2.544-5.067 4.988-7.32 7.878L863 379h-2l1-7h3l1-5h3l1-3c3.444-3 3.444-3 6-3z" fill="#f5412a" stroke="#f5412a" stroke-width="0.8"/><path d="m565 577 4 1-1.242 1.285c-2.795 3.043-4.586 5-5.57 9.09-1.819 5.55-5.936 8.766-10.188 12.625l-1-2-2-1 2.371-2.45 3.067-3.237 1.564-1.608c2.932-3.123 4.684-5.368 4.998-9.705h3z" fill="#f5412a" stroke="#f5412a" stroke-width="0.8"/><path d="m151.25 1038.25 1.75.75q-1.46 2.57-2.93 5.133a549 549 0 0 0-2.507 4.43c-1.954 3.047-4.227 5.67-6.563 8.437l-1 2-5-1a340 340 0 0 1 2.375-3.5l1.336-1.969L140 1051h2l.516-1.828c3.488-11.505 3.488-11.505 8.734-10.922" fill="#f5412a" stroke="#f5412a" stroke-width="0.8"/><path d="M453 824c2 1 2 1 2.813 2.625.288 3.654-1.236 6.095-2.813 9.375h-4l-.25 1.75c-.976 2.928-2.385 4.302-4.75 6.25h-3c1.152-2.468 2.048-4.048 4-6q1.04-2.521 2.07-5.047c1.567-3.292 3.737-6.049 5.93-8.953" fill="#f5412a" stroke="#f5412a" stroke-width="0.8"/><path d="m735 513 4 1-1.758 1.906C731.69 521.99 726.568 528.147 722 535h-4c.576-3.886 2.416-6.112 5-9l3-2 1.438-2.562C729 519 729 519 731.188 518.188L733 518v-3h2z" fill="#f5412a" stroke="#f5412a" stroke-width="0.8"/><path d="m170 1023 2 1c-7.581 7.754-7.581 7.754-11.375 10.75-2.398 2.055-3.545 3.334-4.625 6.25h-3l-.812 2.938L151 1047l-3 1c1.43-5.723 4.363-9.508 8-14 .512-.67 1.024-1.34 1.55-2.031 3.797-4.787 3.797-4.787 7.137-5.719L167 1026c1.794-1.458 1.794-1.458 3-3" fill="#f5412a" stroke="#f5412a" stroke-width="0.8"/><path d="M678 576h3c-.342 5.348-3.347 8.073-6.875 11.75l-1.645 1.785c-4.069 4.328-4.069 4.328-7.48 5.465v-5h2v-3l2.125-1.187c3.499-2.206 5.176-4.765 7.445-8.168z" fill="#f5412a" stroke="#f5412a" stroke-width="0.8"/><path d="M827 293c.75 1.688.75 1.688 1 4-1.89 3.1-3.381 4.712-6.687 6.25-4.985 2.633-8.472 6.678-12.313 10.75l-2-1 1.496-1.645 1.942-2.168 1.933-2.144c1.82-2.042 1.82-2.042 2.629-5.043h2v-4h4v-2c3.462-3 3.462-3 6-3" fill="#f5412a" stroke="#f5412a" stroke-width="0.8"/><path d="m944 159 4 1c-2.759 7.664-6.859 12.054-14 16a163 163 0 0 0-4 3l-1-4h3l.188-1.812c1.142-3.076 2.99-3.643 5.812-5.188 2.59-2.128 3.43-3.697 4-7h2z" fill="#f5412a" stroke="#f5412a" stroke-width="0.8"/><path d="M697 435h2c.553 3.159.517 5.239-1.312 7.934A128 128 0 0 1 692 449l-2.023 2.066A370 370 0 0 1 685 456c0-3 0-3 1.438-4.5L688 450l1-3-2-1q2.428-2.759 4.875-5.5l1.395-1.59c1.202-1.341 2.462-2.63 3.73-3.91" fill="#f5412a" stroke="#f5412a" stroke-width="0.8"/><path d="m355 934 3 1c-2.008 4.39-4.272 7.792-7.5 11.375l-2.344 2.648C346 951 346 951 343 951l1-6h3l.688-2.187c1.565-3.354 3.609-5.318 6.312-7.813z" fill="#f5412a" stroke="#f5412a" stroke-width="0.8"/><path d="m538 613 1 2c-1 2-1 2-3.25 3.25-2.74 1.744-4.365 3.591-6.352 6.129-2.072 2.403-4.483 4.333-6.945 6.324-1.586 1.255-1.586 1.255-2.453 3.297h-3v-4h4l1-5h3v-3h3v-4h3v-2h2v-2z" fill="#f5412a" stroke="#f5412a" stroke-width="0.8"/><path d="m886 226 1 3c-3.726 6.486-7.417 9.709-14 13-2.094 1.58-4.029 3.264-6 5 .15-4.942 2.776-7.229 6.168-10.441 2.134-1.816 4.421-3.137 6.832-4.559 2.093-1.924 4.034-3.942 6-6" fill="#f5412a" stroke="#f5412a" stroke-width="0.8"/><path d="M357 814c-.338 5.405-3.495 9.122-7 13-4.735 4-4.735 4-8 4 8.185-17 8.185-17 15-17" fill="#f5412a" stroke="#f5412a" stroke-width="0.8"/><path d="M953 277h2c-.382 5.034-3.071 7.727-6.437 11.188l-1.526 1.615A319 319 0 0 1 941 296h-4c1.56-3.793 3.942-6.114 6.875-8.937 2.635-2.545 5.067-4.989 7.32-7.88z" fill="#f5412a" stroke="#f5412a" stroke-width="0.8"/><path d="m1075 137 4 1c-1.323 2.905-2.781 5.064-4.969 7.383l-1.73 1.847-1.801 1.895-1.8 1.918c-2.208 2.347-4.422 4.679-6.7 6.957l-1-5h3v-3h2v-2h2l.309-1.766c.806-2.606 1.933-3.97 3.754-5.984l1.66-1.86z" fill="#f5412a" stroke="#f5412a" stroke-width="0.8"/><path d="M580.563 565.938 583 566c0 3 0 3-1.355 4.754-5.112 5.046-5.112 5.046-8.145 6.183-4.204 1.787-6.677 5.565-9.5 9.063l-2-1 2.438-2.812c3.645-4.248 7.175-8.588 10.707-12.93 2.673-3.254 2.673-3.254 5.418-3.32" fill="#f5412a" stroke="#f5412a" stroke-width="0.8"/><path d="M703 555c.436 3.473.2 4.725-1.898 7.605l-2.477 2.582-2.46 2.606c-4.124 4.205-4.124 4.205-6.79 4.332L687 572c1.575-3.865 4.005-6.135 7-9q3.167-3.21 6.328-6.426C702 555 702 555 703 555m315-350h2c-.405 4.97-2.972 7.758-6.25 11.25-.478.541-.956 1.083-1.45 1.64-2.91 3.155-4.956 4.825-9.3 5.11 4.07-6.725 9.457-12.457 15-18" fill="#f5412a" stroke="#f5412a" stroke-width="0.8"/><path d="M431 729h1v5l-1.875.75c-2.56 1.506-2.834 2.63-4.125 5.25a83 83 0 0 1-3.125 3.75l-1.633 1.86L420 747l-3-1 2-8h4v-2l1.75-.687c2.81-1.64 4.292-3.748 6.25-6.313" fill="#f5412a" stroke="#f5412a" stroke-width="0.8"/><path d="M920 316c-.558 3.235-1.372 4.979-4 7h-3v2a188 188 0 0 1-4.473 3.691c-1.825 1.564-3.102 3.385-4.527 5.309h-2v-5l1.75-.625c3.043-1.86 4.323-4.42 6.25-7.375h2l1-3c2.433-1.185 4.28-2 7-2" fill="#f5412a" stroke="#f5412a" stroke-width="0.8"/><path d="m602 661 1 2 2 1c-11.588 13.103-11.588 13.103-17 17-2.195-.36-2.195-.36-4-1l2.25-1.125c2.656-1.81 3.798-3.282 5.438-5.98 2.984-4.309 6.759-8.053 10.312-11.895" fill="#f5412a" stroke="#f5412a" stroke-width="0.8"/><path d="m669 592 1 3c-2.89 5.273-7.44 10.134-12 14-2.18-.348-2.18-.348-4-1l1.313-1.187c1.79-1.78 1.79-1.78 3-4.157 1.831-2.883 3.785-4.754 6.375-6.968l2.449-2.114z" fill="#f5412a" stroke="#f5412a" stroke-width="0.8"/><path d="m921 187 2 1v3h-3l-.719 2.21c-1.477 3.217-3.216 4.992-5.781 7.415-2.541 2.417-4.547 4.445-6.5 7.375l-3-1 1-3h2l.824-1.798c1.15-2.155 2.33-3.664 3.996-5.436l1.621-1.739 1.684-1.777 1.707-1.824q2.079-2.218 4.168-4.426" fill="#f5412a" stroke="#f5412a" stroke-width="0.8"/><path d="M835 401h4c-1.33 6.055-4.627 8.957-9 13q-1.413 1.43-2.812 2.875C825 419 825 419 823 420l1-6h3v-4h4v-3h3z" fill="#f5412a" stroke="#f5412a" stroke-width="0.8"/><path d="M551 599c-.547 3.375-1.055 5.082-3 8h-2v2c-1.426 1.254-1.426 1.254-3.312 2.563l-1.864 1.316C539 614 539 614 536 615c1.452-4.488 3.776-7.345 6.938-10.812l2.652-2.958C548 599 548 599 551 599" fill="#f5412a" stroke="#f5412a" stroke-width="0.8"/><path d="M651 484h2c-.582 3.265-1.53 4.906-3.871 7.234l-1.74 1.739-1.827 1.777-1.814 1.824C639.268 501 639.268 501 637 501c.875-4.75.875-4.75 2-7h4v-4h3v-2h2v-2h3z" fill="#f5412a" stroke="#f5412a" stroke-width="0.8"/><path d="M740 514c.679 1.784.679 1.784 1 4-1.124 1.74-1.124 1.74-2.86 3.453l-1.882 1.875-2.008 1.922-1.96 1.969C727.406 532 727.406 532 724 532c1.411-3.123 3.11-5.497 5.375-8.062l1.773-2.036c1.842-1.892 3.65-3.447 5.852-4.902h2z" fill="#f5412a" stroke="#f5412a" stroke-width="0.8"/><path d="M790 451h3c.44 3.49.174 4.754-1.898 7.676l-2.477 2.637-2.46 2.675C784 466 784 466 782 466c-.437-2.625-.437-2.625 0-6 1.661-1.776 3.411-3.168 5.371-4.605 1.916-1.399 1.916-1.399 2.629-4.395" fill="#f5412a" stroke="#f5412a" stroke-width="0.8"/><path d="M999 228c-.49 4.612-2.234 6.912-5.312 10.313l-2.364 2.675C989 243 989 243 985 243c1.631-3.893 4.176-6.647 7-9.75l1.367-1.535C996.752 228 996.752 228 999 228" fill="#f5412a" stroke="#f5412a" stroke-width="0.8"/><path d="m526 626 1 3c-1.048 1.702-1.048 1.702-2.676 3.54l-1.76 2.007-1.876 2.078-1.842 2.102c-4.532 5.116-4.532 5.116-6.846 6.273.487-6.333.487-6.333 2.875-9.437C517 634 517 634 520 634l.75-1.75c1.417-2.55 3.126-4.268 5.25-6.25" fill="#f5412a" stroke="#f5412a" stroke-width="0.8"/><path d="m784 465 1 3c-2.58 4.723-6.432 9.16-11 12l-3-1a758 758 0 0 1 3.688-4.75l2.074-2.672c2.223-2.56 4.53-4.549 7.238-6.578" fill="#f5412a" stroke="#f5412a" stroke-width="0.8"/><path d="M772 348h4c0 3 0 3-1.715 4.754l-2.222 1.808c-2.99 2.35-2.99 2.35-5.063 5.438h-2l-.875 1.938C763 364 763 364 761 365v-3h2l.281-2.234c.83-3.192 1.988-4.62 4.219-7.016l1.906-2.078A156 156 0 0 1 772 348" fill="#f5412a" stroke="#f5412a" stroke-width="0.8"/><path d="M907 321h3c-1.37 2.95-2.826 5.565-5 8h-3l.75 2.75c.25 3.25.25 3.25-1.562 5.625C899 339 899 339 897 339c-.321-4.606.09-7.335 3-11h3v-2h2z" fill="#f5412a" stroke="#f5412a" stroke-width="0.8"/><path d="M799 327c0 4.083-2.077 5.818-4.687 8.688-.436.51-.87 1.022-1.319 1.548-3.346 3.714-3.346 3.714-6.65 3.971L784 341c-2.79 1.898-2.79 1.898-5 4 .125-2.25.125-2.25 1-5 2.767-2.264 4.858-3.833 8.434-4.355 3.281-.825 4.584-2.258 6.879-4.707l2.113-2.223z" fill="#f5412a" stroke="#f5412a" stroke-width="0.8"/><path d="M240 1062h2c-.417 4.857-2.8 7.451-6.062 10.813l-1.432 1.521c-1.16 1.23-2.332 2.45-3.506 3.666l-2-1c.554-3.88 2.202-5.353 5-8a365 365 0 0 0 4.633-5.61z" fill="#f5412a" stroke="#f5412a" stroke-width="0.8"/><path d="M473 681h2c-1.572 3.87-4.066 6.204-7.062 9.063-3.768 3.454-3.768 3.454-5.938 7.937l-3 1c.45-4.83 1.547-7.547 5-11h3l1-3h3v-2h2z" fill="#f5412a" stroke="#f5412a" stroke-width="0.8"/><path d="M778 466h3c-1.452 3.163-3.23 5.764-5.375 8.5l-1.773 2.281c-1.842 2.207-3.79 4.22-5.852 6.219l-1-5h2v-3h2v-2h2v-2h2l.938-1.937C777 467 777 467 778 466" fill="#f5412a" stroke="#f5412a" stroke-width="0.8"/><path d="m839 275 4 1-1 6-5 1v2l-3 1c-1.667 1.5-1.667 1.5-3 3l-1-3h2v-3h3v-3h2v-2h2z" fill="#f5412a" stroke="#f5412a" stroke-width="0.8"/><path d="M275 901c0 3.517-.824 4.371-3 7h2c-1.4 5.292-4.855 7.775-9 11-.41-3.905-.25-5.619 1.934-8.957l2.503-2.856 2.497-2.894C274 902 274 902 275 901" fill="#f5412a" stroke="#f5412a" stroke-width="0.8"/><path d="M580 691c-.516 4.34-1.919 6.575-4.812 9.813l-2.083 2.394C571 705 571 705 567 705c1.575-3.664 3.842-6.299 6.5-9.25l2.406-2.703C578 691 578 691 580 691" fill="#f5412a" stroke="#f5412a" stroke-width="0.8"/><path d="m611 650 4 1a952 952 0 0 1-2.812 4.313l-1.583 2.425c-1.43 2.016-2.687 3.707-4.605 5.262h-3l1-5h2l.813-1.75c1.204-2.283 2.595-4.224 4.187-6.25" fill="#f5412a" stroke="#f5412a" stroke-width="0.8"/><path d="M318 984c-.595 3.293-1.666 5.13-3.875 7.625l-1.555 1.79C311 995 311 995 308 997h-4c1.548-3.835 3.937-6.026 7-8.75l2.688-2.422C316 984 316 984 318 984" fill="#f5412a" stroke="#f5412a" stroke-width="0.8"/><path d="m617 523 2 1c-.283 3.395-.741 4.741-3.187 7.188-2.89 1.862-5.513 2.891-8.813 3.812v-3h2v-2h2v-3c2.438-1.625 2.438-1.625 5-3z" fill="#f5412a" stroke="#f5412a" stroke-width="0.8"/><path d="M923 311c-1.396 3.373-2.892 5.08-6 7-1.331.342-2.664.678-4 1l-1 2h-2c2.417-7.05 5.272-11.83 13-10" fill="#f5412a" stroke="#f5412a" stroke-width="0.8"/><path d="m212 973 1 3-9 9-3-1v-3h2l1-4h3v-2z" fill="#f5412a" stroke="#f5412a" stroke-width="0.8"/><path d="M798 323h3c-.474 4.317-3.034 6.336-6.062 9.25l-2.786 2.703L790 337l-3-1 1.137-1.32 1.55-1.805 1.657-1.918a123 123 0 0 0 3.062-3.758c1.136-1.45 2.36-2.831 3.594-4.199" fill="#f5412a" stroke="#f5412a" stroke-width="0.8"/><path d="M402 765c0 4.91-3.695 7.61-7 11-1.946 1.765-3.927 3.382-6 5 0-4.816.97-6.331 4-10a101 101 0 0 1 6-2c1.873-1.993 1.873-1.993 3-4" fill="#f5412a" stroke="#f5412a" stroke-width="0.8"/><path d="m478 674 5 1c-2.295 5.535-5.685 9.004-10 13l-2-2 1.438-1.187c1.914-2.221 2.175-3.947 2.562-6.813h2z" fill="#f5412a" stroke="#f5412a" stroke-width="0.8"/><path d="m466 812 4 1-2.812 2.125c-3.117 2.577-4.47 5.205-6.188 8.875-2.062 2.375-2.062 2.375-4 4h-2l-1-4 2.117-1.863 2.758-2.45 2.742-2.425c2.515-2.22 2.515-2.22 4.383-5.262" fill="#f5412a" stroke="#f5412a" stroke-width="0.8"/><path d="M1017 85c-.542 3.794-2.005 5.192-4.937 7.563-2.593 2.112-4.18 3.612-6.063 6.437l-3-1c1.53-3.606 3.687-5.986 6.438-8.75l2.37-2.422C1014 85 1014 85 1017 85" fill="#f5412a" stroke="#f5412a" stroke-width="0.8"/><path d="M1016 89c-1.491 3.514-3.506 5.685-6.25 8.313-3.827 3.733-7.337 7.574-10.75 11.687 0-3 0-3 1.438-4.5L1002 103l1-3-2-1 3-1 2 1 .625-1.625c1.937-3.346 5.222-8.375 9.375-8.375" fill="#f5412a" stroke="#f5412a" stroke-width="0.8"/><path d="M172 1016c1.5 1.375 1.5 1.375 3 3v2c-1.61 1.508-1.61 1.508-3.75 3.125l-2.11 1.633C167 1027 167 1027 163 1027v-2h2l.688-1.687c1.671-2.945 3.865-4.995 6.312-7.313" fill="#f5412a" stroke="#f5412a" stroke-width="0.8"/><path d="M855 260h2c-.519 4.172-1.712 6.254-4.562 9.313l-1.942 2.113L849 273l-4-1c2.167-3.992 4.711-6.88 8-10z" fill="#f5412a" stroke="#f5412a" stroke-width="0.8"/><path d="M1045.813 53.188 1048 54l1 4-3.25.875c-2.844.853-5.185 1.689-7.75 3.125 0-4 0-4 2.188-6.812 2.812-2.188 2.812-2.188 5.624-2" fill="#f5412a" stroke="#f5412a" stroke-width="0.8"/><path d="M566 706c.75 1.688.75 1.688 1 4-1.687 2.75-1.687 2.75-4 5h-4l-1 4-4-1a1962 1962 0 0 1 4.875-5.437l1.395-1.565c3.503-3.885 3.503-3.885 5.73-4.998" fill="#f5412a" stroke="#f5412a" stroke-width="0.8"/><path d="M369 801c-.56 3.822-2.213 5.59-4.937 8.25l-2.153 2.14C360 813 360 813 358 813c.15-4.98 2.881-7.322 6.21-10.645C366 801 366 801 369 801" fill="#f5412a" stroke="#f5412a" stroke-width="0.8"/><path d="M647.207 613.336 649 614c-1.382 3.21-2.924 5.05-5.625 7.25l-1.914 1.578L640 624c-.875-2.125-.875-2.125-1-5 2.06-3.107 4.245-6.267 8.207-5.664" fill="#f5412a" stroke="#f5412a" stroke-width="0.8"/><path d="m994 228 3 1c-.76.808-1.519 1.616-2.3 2.45q-1.507 1.618-3.013 3.238l-1.513 1.607c-2.832 3.057-5.17 6.017-7.174 9.705l-2-1v-2h2l.188-2.25c1.073-3.634 2.81-4.498 5.812-6.75 1.763-1.935 3.369-3.949 5-6" fill="#f5412a" stroke="#f5412a" stroke-width="0.8"/><path d="M903 209c-.196 4.214-.675 5.683-3.75 8.688-2.695 1.917-5.364 3.7-8.25 5.312.545-4.093 2.709-6.264 5.438-9.25l2.433-2.703C901 209 901 209 903 209" fill="#f5412a" stroke="#f5412a" stroke-width="0.8"/><path d="m819 303 2 1c-7.116 11.221-7.116 11.221-13 13l-2-1z" fill="#f5412a" stroke="#f5412a" stroke-width="0.8"/><path d="m178 1009 5 2a307 307 0 0 1-2.812 4l-1.583 2.25L177 1019h-3c-1.125-3.75-1.125-3.75 0-6h2z" fill="#f5412a" stroke="#f5412a" stroke-width="0.8"/><path d="M615 532v2c-1.355 1.332-1.355 1.332-3.187 2.813-3.125 2.584-5.99 5.278-8.813 8.187.75-6.625.75-6.625 3-10 6.222-3 6.222-3 9-3" fill="#f5412a" stroke="#f5412a" stroke-width="0.8"/><path d="M895 343v3h-3l-.75 2.75c-1.312 3.41-2.366 5.045-5.25 7.25h-4v-2h2l.781-1.766c1.317-2.414 2.77-4.051 4.719-5.984l1.844-1.86C893 343 893 343 895 343" fill="#f5412a" stroke="#f5412a" stroke-width="0.8"/><path d="m935 174 1 4c-1.218 1.158-2.45 2.3-3.687 3.438l-2.075 1.933c-2.46 1.791-4.246 2.257-7.238 2.629 1.506-3.835 3.734-5.57 7-8l2.813-2.25z" fill="#f5412a" stroke="#f5412a" stroke-width="0.8"/><path d="m121 1069 4 1c-2.975 4.692-6.314 8.847-10 13l-2-1v-2h2l.438-2.375C116 1075 116 1075 117 1073h4z" fill="#f5412a" stroke="#f5412a" stroke-width="0.8"/><path d="M490 664h2v4h-2l-.687 1.75c-1.643 2.816-3.708 4.33-6.313 6.25l-2-2a923 923 0 0 1 4.375-5l2.46-2.812z" fill="#f5412a" stroke="#f5412a" stroke-width="0.8"/><path d="M604 535h2c-1.627 3.714-3.947 6.616-6.5 9.75l-2.406 2.984L595 550h-2l1-6h4l1-5h3v-2h2z" fill="#f5412a" stroke="#f5412a" stroke-width="0.8"/><path d="m666 469 4 2c-4.114 7.527-4.114 7.527-7.812 9.5L660 481c2.8-8.8 2.8-8.8 6-12" fill="#f5412a" stroke="#f5412a" stroke-width="0.8"/><path d="M854 266c0 3.699-.844 4.358-3.25 7.063l-1.828 2.097c-1.892 1.811-3.528 2.818-5.922 3.84l-1-5c1.813-1.062 1.813-1.062 4-2l3 1 .813-1.812c1.172-2.16 2.38-3.546 4.187-5.188" fill="#f5412a" stroke="#f5412a" stroke-width="0.8"/><path d="M727 400h2c-1.396 3.186-3.046 5.24-5.562 7.625-2.578 2.42-2.578 2.42-4.438 5.375h-2v-5l2.438-.75c2.733-.972 2.733-.972 3.375-3.375L723 402h4z" fill="#f5412a" stroke="#f5412a" stroke-width="0.8"/><path d="M751 375h2q-.463 2.22-.937 4.438l-.528 2.496C751 384 751 384 750 385c-1.666.04-3.334.043-5 0 .507-4.398 3.083-6.87 6-10" fill="#f5412a" stroke="#f5412a" stroke-width="0.8"/><path d="m894 220 2 1a1064 1064 0 0 1-3.812 4.875l-2.145 2.742C888 231 888 231 885 233q.638-2.443 1.313-4.875l.738-2.742C888 223 888 223 891 221h2z" fill="#f5412a" stroke="#f5412a" stroke-width="0.8"/><path d="m1035 182 4 1c-1.555 3.817-4.036 6.192-7 9l-3-1 3-6h2z" fill="#f5412a" stroke="#f5412a" stroke-width="0.8"/><path d="M156 1034h2c-.875 4.75-.875 4.75-2 7h-3l-.812 2.938L151 1047l-3 1c1.38-5.516 4.142-9.87 8-14" fill="#f5412a" stroke="#f5412a" stroke-width="0.8"/><path d="M1104 110c.766 1.703.766 1.703 1 4-1.766 2.36-1.766 2.36-4.25 4.75l-2.453 2.422C1096 123 1096 123 1093 123c1.254-3.762 3.142-5.272 6-8l2.813-2.812z" fill="#f5412a" stroke="#f5412a" stroke-width="0.8"/><path d="M445 834c.75 1.75.75 1.75 1 4a91 91 0 0 1-4 4l-.5 2.125c-.5 1.875-.5 1.875-2.562 3.125L437 848v-4h2l.75-2.75c1.29-3.354 2.57-4.927 5.25-7.25" fill="#f5412a" stroke="#f5412a" stroke-width="0.8"/><path d="M655 603h3c-1.656 3.588-3.628 6.838-6 10h-3l1-7 5-1z" fill="#f5412a" stroke="#f5412a" stroke-width="0.8"/><path d="m572 576 1 2c-6.15 9.595-6.15 9.595-10 13l-2-1c.559-3.504 1.597-4.844 4.375-7 2.637-2.134 4.751-4.134 6.625-7" fill="#f5412a" stroke="#f5412a" stroke-width="0.8"/><path d="M132 1063c-.266 3.898-.563 5.563-3.375 8.375C126 1073 126 1073 123 1073c1.317-4.189 4.025-10 9-10" fill="#f5412a" stroke="#f5412a" stroke-width="0.8"/><path d="M140 1059a592 592 0 0 1-2.812 3.375l-1.583 1.898C134 1066 134 1066 131 1068c-.36-6.36-.36-6.36 1.125-9 2.806-1.497 4.877-.733 7.875 0" fill="#f5412a" stroke="#f5412a" stroke-width="0.8"/><path d="M497 783c.368 3.312.298 4.606-1.75 7.313C493 792 493 792 489 792c.46-4.147 3.516-9 8-9" fill="#f5412a" stroke="#f5412a" stroke-width="0.8"/><path d="M417 747v6l-2 1v-2l-2.875 2.375-1.617 1.336c-1.219 1.042-2.375 2.156-3.508 3.289 0-4 0-4 1.68-6.14l2.195-2.11 2.18-2.14C415 747 415 747 417 747" fill="#f5412a" stroke="#f5412a" stroke-width="0.8"/><path d="m635 629 1 4-3 1v4c-3 2-3 2-5.187 1.625L626 639a214 214 0 0 1 2.313-3.5l1.3-1.969L631 632h3z" fill="#f5412a" stroke="#f5412a" stroke-width="0.8"/><path d="M713 413h4c-.75 5.75-.75 5.75-3 8a104 104 0 0 1-5 2v-3h2v-4h2z" fill="#f5412a" stroke="#f5412a" stroke-width="0.8"/><path d="M724 408h3c-1.578 3.71-3.907 6.3-6.625 9.25l-2.477 2.703L716 422l-2-1c1.4-4.9 4.082-6.898 8-10z" fill="#f5412a" stroke="#f5412a" stroke-width="0.8"/><path d="m525 622 3 1c-5.07 7.787-5.07 7.787-8 11h-3v-4h4l1-5h3z" fill="#f5412a" stroke="#f5412a" stroke-width="0.8"/><path d="m875 235 3 1c-1.448 3.444-3.277 5.361-6.125 7.75l-2.195 1.86L868 247c-.746-1.734-.746-1.734-1-4 1.652-2.14 1.652-2.14 3.938-4.25l2.277-2.14z" fill="#f5412a" stroke="#f5412a" stroke-width="0.8"/><path d="M531 746c-.152 2.667-.494 4.45-2.332 6.445C524.494 756 524.494 756 522 756c1.317-4.189 4.025-10 9-10" fill="#f5412a" stroke="#f5412a" stroke-width="0.8"/><path d="M809 431h2c-.343 3.09-.822 4.771-2.75 7.25-2.479 1.928-4.16 2.407-7.25 2.75a259 259 0 0 1 2.313-4l1.3-2.25L806 433h3z" fill="#f5412a" stroke="#f5412a" stroke-width="0.8"/><path d="m866 367 3 2a201 201 0 0 1-1.75 3.875l-.984 2.18c-1.485 2.282-2.77 2.949-5.266 3.945l1-7h3z" fill="#f5412a" stroke="#f5412a" stroke-width="0.8"/><path d="m253 930 3 1a680 680 0 0 1-3.875 4l-2.18 2.25C248 939 248 939 246 939l-1 2-1-5 2.25-1.312c2.726-1.586 2.726-1.586 4.875-3.438z" fill="#f5412a" stroke="#f5412a" stroke-width="0.8"/><path d="M259 915q2.514.428 5 1a1716 1716 0 0 1-2.812 3.313l-1.583 1.863c-2.942 3.344-2.942 3.344-4.605 4.824h-2v-2h2v-3h3l-.062-2.437C258 916 258 916 259 915" fill="#f5412a" stroke="#f5412a" stroke-width="0.8"/><path d="m748 499 2 1-6 5c1.152-2.468 2.048-4.048 4-6m-6 6 2 1c-.56 3.243-1.413 4.93-4 7h-2c.498-3.688 1.1-5.605 4-8" fill="#f5412a" stroke="#f5412a" stroke-width="0.8"/><path d="M1055 164h2l-1 5h-4l-.375 1.875C1051 173 1051 173 1049 175l-3-1a923 923 0 0 1 4.375-5l2.46-2.812z" fill="#f5412a" stroke="#f5412a" stroke-width="0.8"/><path d="m994 104 4 1-2.875 3.375-1.617 1.898A76 76 0 0 1 990 114l-1-5h2v-3h3z" fill="#f5412a" stroke="#f5412a" stroke-width="0.8"/><path d="M209 1095h2c-.267 3.91-.592 5.581-3.375 8.438L205 1105l-3-1a340 340 0 0 1 2.375-3.5l1.336-1.969L207 1097h2z" fill="#f5412a" stroke="#f5412a" stroke-width="0.8"/><path d="m368 926 2 2a1250 1250 0 0 1-5.375 5.5l-1.54 1.59c-1.323 1.342-2.701 2.63-4.085 3.91h-2c1.536-3.68 3.782-5.988 6.625-8.75l2.477-2.422z" fill="#f5412a" stroke="#f5412a" stroke-width="0.8"/><path d="M387 774h4c-1.652 3.579-3.783 6.748-6 10l-2-1v-5h3z" fill="#f5412a" stroke="#f5412a" stroke-width="0.8"/><path d="M711 545c.813 1.625.813 1.625 1 4-2.187 3.25-2.187 3.25-5 6h-4c1.557-3.822 4.034-6.186 7-9z" fill="#f5412a" stroke="#f5412a" stroke-width="0.8"/><path d="m1101 108 2 4-7 8-2-1 1-5h2v-2h2v-2h2z" fill="#f5412a" stroke="#f5412a" stroke-width="0.8"/><path d="m233 948 4 2a962 962 0 0 1-2.937 4l-1.653 2.25L231 958h-1c-.37-5.415-.37-5.415 1.5-8.375z" fill="#f5412a" stroke="#f5412a" stroke-width="0.8"/><path d="m316 856 2 1c-.543 3.804-2.03 5.608-5 8-2.75.75-2.75.75-5 1a125 125 0 0 1 4-6h2z" fill="#f5412a" stroke="#f5412a" stroke-width="0.8"/><path d="M752 496h3c-1.477 3.452-3.438 5.65-6.125 8.25l-2.195 2.14L745 508l-2-2a564 564 0 0 1 3.375-4l1.898-2.25L750 498h2z" fill="#f5412a" stroke="#f5412a" stroke-width="0.8"/><path d="m727 403 3 1c-2.625 3.875-2.625 3.875-6 5-1.656 1.63-1.656 1.63-3.187 3.563l-1.606 1.94L718 416l-1-3h2l.625-1.625c1.955-3.377 4.557-5.68 7.375-8.375" fill="#f5412a" stroke="#f5412a" stroke-width="0.8"/><path d="m129 1122 7 1 .875 2.438c.858 2.695.858 2.695 3.125 3.562l-2 2a1496 1496 0 0 1-4.5-3.937l-2.531-2.215L129 1123z" fill="#f5412a" stroke="#f5412a" stroke-width="0.8"/><path d="m821 296 3 1a592 592 0 0 1-2.812 3.375l-1.583 1.898C818 304 818 304 815 306v-4h2v-4h4z" fill="#f5412a" stroke="#f5412a" stroke-width="0.8"/><path d="M149 1038c2.14.398 2.14.398 4 1a1155 1155 0 0 1-3.437 4l-1.934 2.25L146 1047h-1c-.37-3.33-.275-4.627 1.75-7.375z" fill="#f5412a" stroke="#f5412a" stroke-width="0.8"/><path d="M197 985c2.063.438 2.063.438 4 1a324 324 0 0 1-2.75 3.375l-1.547 1.898c-1.785 1.81-3.382 2.728-5.703 3.727v-2h2v-2h2l.438-2.437C196 986 196 986 197 985" fill="#f5412a" stroke="#f5412a" stroke-width="0.8"/><path d="m574 693 2 1a2696 2696 0 0 1-3.312 3.813l-1.864 2.144A101 101 0 0 1 566 705c.446-5.055 2.647-7.402 6-11z" fill="#f5412a" stroke="#f5412a" stroke-width="0.8"/><path d="M776 351c-1.304 3.913-2.79 6.373-6 9h-3c1.543-3.788 4.553-9 9-9" fill="#f5412a" stroke="#f5412a" stroke-width="0.8"/><path d="M783 341c.813 1.688.813 1.688 1 4-2.25 2.75-2.25 2.75-5 5h-3c.176-2.38.697-3.702 2.402-5.379 1.504-1.242 3.05-2.435 4.598-3.621" fill="#f5412a" stroke="#f5412a" stroke-width="0.8"/><path d="m959 268 2 3-8 7-1-3z" fill="#f5412a" stroke="#f5412a" stroke-width="0.8"/><path d="M916 195c0 3 0 3-1.46 4.719l-1.915 1.781c-2.275 2.135-3.872 3.871-5.625 6.5l-3-1 1-3h2l1-2a92 92 0 0 1 3.5-3.062c2.31-1.904 2.31-1.904 4.5-3.938" fill="#f5412a" stroke="#f5412a" stroke-width="0.8"/><path d="m542 606 1 2 3 1q-1.652 1.225-3.312 2.438l-1.864 1.37C539 614 539 614 536 615c1.312-3.937 2.92-6.227 6-9" fill="#f5412a" stroke="#f5412a" stroke-width="0.8"/><path d="m624 515 3 2v2c-2.312 2.188-2.312 2.188-5 4l-3-1c1.293-2.884 2.66-4.872 5-7" fill="#f5412a" stroke="#f5412a" stroke-width="0.8"/><path d="M1066 73c3.323 1.168 5.834 2.15 8 5v3c-3.323-1.168-5.834-2.15-8-5z" fill="#f5412a" stroke="#f5412a" stroke-width="0.8"/><path d="M414 869h4c-1.306 2.913-2.707 4.803-5 7l-2 3-1-6h3z" fill="#f5412a" stroke="#f5412a" stroke-width="0.8"/><path d="M313 866a56.5 56.5 0 0 1-4 7h-2v-7c3-1 3-1 6 0" fill="#f5412a" stroke="#f5412a" stroke-width="0.8"/><path d="M435 852c-.875 5.875-.875 5.875-2 7-1.666.04-3.334.043-5 0 3.138-7 3.138-7 7-7" fill="#f5412a" stroke="#f5412a" stroke-width="0.8"/><path d="m351 820 1 2c-2.296 3.69-4.228 6.737-8 9h-2c1.559-3.827 4.032-6.18 7-9z" fill="#f5412a" stroke="#f5412a" stroke-width="0.8"/><path d="m565 577 4 1a1155 1155 0 0 1-3.437 4l-1.934 2.25L562 586h-1v-5h3z" fill="#f5412a" stroke="#f5412a" stroke-width="0.8"/><path d="M771 473h2c-.432 4.752-1.328 6.92-5 10l-1-5h2v-3h2z" fill="#f5412a" stroke="#f5412a" stroke-width="0.8"/><path d="M259 1044h2c-.125 1.75-.125 1.75-1 4-3.062 2.25-3.062 2.25-6 4 1.37-2.95 2.878-5.525 5-8m-7 8 2 1-4 3z" fill="#f5412a" stroke="#f5412a" stroke-width="0.8"/><path d="M593 675h2l-1 5h-4l-1 4-3-1a564 564 0 0 1 3.375-4l1.898-2.25z" fill="#f5412a" stroke="#f5412a" stroke-width="0.8"/><path d="m647 494 3 1c-4.625 5.75-4.625 5.75-8 8l-3-1z" fill="#f5412a" stroke="#f5412a" stroke-width="0.8"/><path d="m837 406 1 3-8 7c0-3 0-3 1.531-4.824l1.969-1.863 1.969-1.887zm-12 12 2 1-3 2z" fill="#f5412a" stroke="#f5412a" stroke-width="0.8"/><path d="M920 316c-.558 3.235-1.372 4.979-4 7h-3v2h-2c1.543-3.788 4.553-9 9-9" fill="#f5412a" stroke="#f5412a" stroke-width="0.8"/><path d="M422 860h4c-1.285 2.867-2.571 4.976-5 7h-2c.75-4.75.75-4.75 3-7" fill="#f5412a" stroke="#f5412a" stroke-width="0.8"/><path d="m415 752 1 3-6 5c-.75-1.75-.75-1.75-1-4 3.222-4 3.222-4 6-4" fill="#f5412a" stroke="#f5412a" stroke-width="0.8"/><path d="M975 255c-.54 3.785-2.076 5.592-5 8h-3c1.517-3.54 3.753-8 8-8" fill="#f5412a" stroke="#f5412a" stroke-width="0.8"/><path d="m874 240 2 1-5 8-4-1 2.938-3.437 1.652-1.934A50 50 0 0 1 874 240" fill="#f5412a" stroke="#f5412a" stroke-width="0.8"/><path d="m1075 137 4 1c-1.152 2.468-2.048 4.048-4 6h-3c.613-2.962 1.254-4.38 3-7" fill="#f5412a" stroke="#f5412a" stroke-width="0.8"/><path d="M193 1118c-1.012 3.403-1.648 4.757-4.625 6.813L186 1126c.37-2.741.686-4.586 2.375-6.812C190 1118 190 1118 193 1118" fill="#f5412a" stroke="#f5412a" stroke-width="0.8"/><path d="m322 972 1 3-8 9-2-1v-2h3l1-4h2l1-3h2z" fill="#f5412a" stroke="#f5412a" stroke-width="0.8"/><path d="m365 807 2 1-9 9-1-3-2-1 3-2v2z" fill="#f5412a" stroke="#f5412a" stroke-width="0.8"/><path d="M820 482v3c-4.229 4-4.229 4-8 4 3.5-7 3.5-7 8-7" fill="#1a1a1a" stroke="#1a1a1a" stroke-width="0.8"/><path d="m933 171 4 1-6 7-2-1v-3h3z" fill="#f5412a" stroke="#f5412a" stroke-width="0.8"/><path d="m1035 62 2 1v4c-3 2-3 2-5.187 1.625L1030 68z" fill="#f5412a" stroke="#f5412a" stroke-width="0.8"/><path d="m148 1044 1 2c-1.685 3.37-2.82 4.88-6 7l-1-4z" fill="#f5412a" stroke="#f5412a" stroke-width="0.8"/><path d="M218 967v4h-3l-2 4h-3c1.517-3.54 3.753-8 8-8" fill="#f5412a" stroke="#f5412a" stroke-width="0.8"/><path d="m252 927 4 2-3 2c-2.031 1.631-4.01 3.319-6 5l-2-1 2-3h2l.938-1.937C251 928 251 928 252 927" fill="#f5412a" stroke="#f5412a" stroke-width="0.8"/><path d="M306 867h1v6h-3c-2.688 2.438-2.688 2.438-5 5l-2-1q2.215-2.504 4.438-5l2.496-2.812z" fill="#f5412a" stroke="#f5412a" stroke-width="0.8"/><path d="M449 837c-1.283 2.862-2.53 5.025-5 7h-3c1.86-4.15 3.17-7 8-7" fill="#f5412a" stroke="#f5412a" stroke-width="0.8"/><path d="m423 736 3 1-5 7-2-1v-5h4z" fill="#f5412a" stroke="#f5412a" stroke-width="0.8"/><path d="M678 576h3c-.25 2.375-.25 2.375-1 5-2.062 1.313-2.062 1.313-4 2-.125-2.375-.125-2.375 0-5z" fill="#f5412a" stroke="#f5412a" stroke-width="0.8"/><path d="m611 527 4 1a418 418 0 0 1-2.875 3.5l-1.617 1.969L609 535h-2v-3h2v-2h2z" fill="#f5412a" stroke="#f5412a" stroke-width="0.8"/><path d="m765 360 2 1c-.349 3.255-1.021 4.019-3.562 6.25L761 369c-.812-1.687-.812-1.687-1-4 2.438-2.75 2.438-2.75 5-5" fill="#f5412a" stroke="#f5412a" stroke-width="0.8"/><path d="m947 279 4 1-7 8-1-3h2l.438-1.875C946 281 946 281 947 279" fill="#f5412a" stroke="#f5412a" stroke-width="0.8"/><path d="M1089 126h2v3h-3l-.375 1.875C1087 133 1087 133 1085 135l-3-1a564 564 0 0 1 3.375-4l1.898-2.25z" fill="#f5412a" stroke="#f5412a" stroke-width="0.8"/><path d="m645 494 2 1c-3.721 3.914-7.14 7.497-12 10v-4l2.188-.687c3.344-1.561 5.328-3.616 7.812-6.313" fill="#f5412a" stroke="#f5412a" stroke-width="0.8"/><path d="M907 321h3c-1.372 2.954-2.989 5.44-5 8l-3-1 1-2h2z" fill="#f5412a" stroke="#f5412a" stroke-width="0.8"/><path d="M803 317h2c-.783 3.916-2.392 7.364-4 11l-1-2 1-3-2-1a105 105 0 0 1 4-5" fill="#f5412a" stroke="#f5412a" stroke-width="0.8"/><path d="M988 237c-1.498 3.112-3.2 6.053-5 9l-2-1v-2h2l.375-2.437L984 238c2-1 2-1 4-1" fill="#f5412a" stroke="#f5412a" stroke-width="0.8"/><path d="M1025 76c-.312 1.938-.312 1.938-1 4l-3 1c-1.667 1.5-1.667 1.5-3 3 .37-2.741.686-4.586 2.375-6.812C1022 76 1022 76 1025 76" fill="#f5412a" stroke="#f5412a" stroke-width="0.8"/><path d="m188 1124 1 3-5 3c1.152-2.468 2.048-4.048 4-6m-6 6 2 1-6 5c1.152-2.468 2.048-4.048 4-6" fill="#f5412a" stroke="#f5412a" stroke-width="0.8"/><path d="M425 738c0 4.39-2.128 5.77-5 9l-3-1c1-3 1-3 2.875-4l2.125-1c1.71-1.541 1.71-1.541 3-3" fill="#f5412a" stroke="#f5412a" stroke-width="0.8"/><path d="M499 650q2.514.428 5 1c-4.75 4.875-4.75 4.875-7 6 .875-5.875.875-5.875 2-7" fill="#f5412a" stroke="#f5412a" stroke-width="0.8"/><path d="M204 977h3c-.542 3.796-2.201 5.472-5 8l-1-4h2z" fill="#f5412a" stroke="#f5412a" stroke-width="0.8"/><path d="M230 953v6l-4 1c0-4 0-4 1.438-5.75C229 953 229 953 230 953" fill="#f5412a" stroke="#f5412a" stroke-width="0.8"/><path d="M370 793c2.125.375 2.125.375 4 1a318 318 0 0 1-5 6h-1c-.125-2.375-.125-2.375 0-5z" fill="#f5412a" stroke="#f5412a" stroke-width="0.8"/><path d="m566 707 1 3c-1.937 2.688-1.937 2.688-4 5l-4-1z" fill="#f5412a" stroke="#f5412a" stroke-width="0.8"/><path d="M625 640h4c-1.049 2.622-1.65 3.794-4.125 5.25L623 646c.875-4.875.875-4.875 2-6" fill="#f5412a" stroke="#f5412a" stroke-width="0.8"/><path d="m635 624 4 1v4l-5 1z" fill="#f5412a" stroke="#f5412a" stroke-width="0.8"/><path d="m816 425 3 1-7 7-1-4c2.313-2.062 2.313-2.062 5-4" fill="#f5412a" stroke="#f5412a" stroke-width="0.8"/><path d="M835 401h4c-.812 2.938-.812 2.938-2 6l-3 1z" fill="#f5412a" stroke="#f5412a" stroke-width="0.8"/><path d="m958 148 1 2c-1.437 2.625-1.437 2.625-3 5l-4-1c3.75-4.875 3.75-4.875 6-6" fill="#f5412a" stroke="#f5412a" stroke-width="0.8"/><path d="m159 1147 7 1-3 4-4-2z" fill="#f5412a" stroke="#f5412a" stroke-width="0.8"/><path d="m437 726 1 2c-1.25 2.625-1.25 2.625-3 5h-3v-5l1.938-.437c2.037-.373 2.037-.373 3.062-1.563" fill="#f5412a" stroke="#f5412a" stroke-width="0.8"/><path d="M782 338c2.125.375 2.125.375 4 1-4.75 4.875-4.75 4.875-7 6 .75-4.75.75-4.75 3-7" fill="#f5412a" stroke="#f5412a" stroke-width="0.8"/><path d="M754 215c3.265 1.804 4.89 2.834 7 6l-6-1z" fill="#1a1a1a" stroke="#1a1a1a" stroke-width="0.8"/><path d="m1084 128 3 1a159 159 0 0 1-5 6h-2c.564-3.27 1.5-4.826 4-7" fill="#f5412a" stroke="#f5412a" stroke-width="0.8"/><path d="M1000 100h3c-.25 1.875-.25 1.875-1 4-2.062 1.25-2.062 1.25-4 2l-1-2c1.313-2 1.313-2 3-4" fill="#f5412a" stroke="#f5412a" stroke-width="0.8"/><path d="m431 851 4 1-4.492 3.71c-1.219 1.043-2.375 2.157-3.508 3.29v-5l4-1z" fill="#f5412a" stroke="#f5412a" stroke-width="0.8"/><path d="m391 774 3 1c-1.37 3.161-1.99 3.993-5 6 0-4 0-4 2-7" fill="#f5412a" stroke="#f5412a" stroke-width="0.8"/><path d="m437 721 3 1c-4.75 4.875-4.75 4.875-7 6v-5h4z" fill="#f5412a" stroke="#f5412a" stroke-width="0.8"/><path d="m638 502 1 3a91 91 0 0 1-4 4h-2c.25-2.375.25-2.375 1-5 2.063-1.312 2.063-1.312 4-2" fill="#f5412a" stroke="#f5412a" stroke-width="0.8"/><path d="M955 324c-.506 2.169-1 4-2 6l-4-1c2.258-5 2.258-5 6-5" fill="#1a1a1a" stroke="#1a1a1a" stroke-width="0.8"/><path d="m950 155 2 1c-1.25 3.653-1.671 4.78-5 7-.37-4.554-.37-4.554 1.5-6.812z" fill="#f5412a" stroke="#f5412a" stroke-width="0.8"/><path d="m278 901 1 3c-2 3-2 3-4.625 3.688L272 908v-2a159 159 0 0 1 6-5" fill="#f5412a" stroke="#f5412a" stroke-width="0.8"/><path d="m535 617 2 1c-2.657 3.739-4.581 5.65-9 7l2.938-3.437 1.652-1.934A50 50 0 0 1 535 617" fill="#f5412a" stroke="#f5412a" stroke-width="0.8"/><path d="m890 348 1 2-5 6-3-1z" fill="#f5412a" stroke="#f5412a" stroke-width="0.8"/><path d="M965 264h2c-.573 2.867-.861 3.861-3 6h-3c1.152-2.468 2.048-4.048 4-6" fill="#f5412a" stroke="#f5412a" stroke-width="0.8"/><path d="m470 689 2 1c-2.85 3.008-5.235 5.278-9 7l2.938-3.437 1.652-1.934A50 50 0 0 1 470 689" fill="#f5412a" stroke="#f5412a" stroke-width="0.8"/><path d="m635 629 1 4c-3 2-3 2-6 2l1-3h3z" fill="#f5412a" stroke="#f5412a" stroke-width="0.8"/><path d="M533 614h2c-1.491 3.795-3.757 5.61-7 8v-4h3v-2h2z" fill="#f5412a" stroke="#f5412a" stroke-width="0.8"/><path d="M692 567h3c-.687 1.938-.687 1.938-2 4-2.625.75-2.625.75-5 1 1.813-2.5 1.813-2.5 4-5" fill="#f5412a" stroke="#f5412a" stroke-width="0.8"/><path d="M713 413h4v2h-2v2h-2l-1 3-1-4h2z" fill="#f5412a" stroke="#f5412a" stroke-width="0.8"/><path d="M839 275h3c-1.491 3.795-3.757 5.61-7 8v-3h2v-2h2z" fill="#f5412a" stroke="#f5412a" stroke-width="0.8"/><path d="M108 1087c1 3 1 3 0 6h-2l-3 2c1.186-3.375 2.276-5.647 5-8" fill="#f5412a" stroke="#f5412a" stroke-width="0.8"/><path d="M385 910c-1.37 3.161-1.99 3.993-5 6l-1-3c2.625-3 2.625-3 6-3" fill="#f5412a" stroke="#f5412a" stroke-width="0.8"/><path d="M478 674h3a56.5 56.5 0 0 1-4 7h-2v-3h2z" fill="#f5412a" stroke="#f5412a" stroke-width="0.8"/><path d="M616 645h3c-.75 1.938-.75 1.938-2 4-2.125.75-2.125.75-4 1 1.875-3.875 1.875-3.875 3-5" fill="#f5412a" stroke="#f5412a" stroke-width="0.8"/><path d="m913 318 3 1-5 6-3-1 2-3h2z" fill="#f5412a" stroke="#f5412a" stroke-width="0.8"/><path d="M1055 164h2l-1 5h-4c1.875-3.875 1.875-3.875 3-5" fill="#f5412a" stroke="#f5412a" stroke-width="0.8"/><path d="m944 159 4 1-5 5-1-4h2z" fill="#f5412a" stroke="#f5412a" stroke-width="0.8"/><path d="M146 1050c0 4.39-2.128 5.77-5 9l-1-2z" fill="#f5412a" stroke="#f5412a" stroke-width="0.8"/><path d="m184 1005 1 4c-3 2-3 2-6 2v-2a105 105 0 0 1 5-4" fill="#f5412a" stroke="#f5412a" stroke-width="0.8"/><path d="m211 977 1 2-4 5-3-1z" fill="#f5412a" stroke="#f5412a" stroke-width="0.8"/><path d="m355 934 3 1c-2.353 2.724-4.625 3.814-8 5 1.37-3.161 1.99-3.993 5-6" fill="#f5412a" stroke="#f5412a" stroke-width="0.8"/><path d="m362 927 3 1-5 5-1-3z" fill="#f5412a" stroke="#f5412a" stroke-width="0.8"/></svg>